<?xml version="1.0" encoding="UTF-8" standalone="no"?>
<!-- Created with Inkscape (http://www.inkscape.org/) -->

<svg
   width="34.309433mm"
   height="57.030521mm"
   viewBox="0 0 34.309433 57.030521"
   version="1.1"
   id="svg1"
   xml:space="preserve"
   inkscape:version="1.3.2 (091e20e, 2023-11-25, custom)"
   sodipodi:docname="logros.svg"
   xmlns:inkscape="http://www.inkscape.org/namespaces/inkscape"
   xmlns:sodipodi="http://sodipodi.sourceforge.net/DTD/sodipodi-0.dtd"
   xmlns:xlink="http://www.w3.org/1999/xlink"
   xmlns="http://www.w3.org/2000/svg"
   xmlns:svg="http://www.w3.org/2000/svg"><sodipodi:namedview
     id="namedview1"
     pagecolor="#ffffff"
     bordercolor="#000000"
     borderopacity="0.25"
     inkscape:showpageshadow="2"
     inkscape:pageopacity="0.0"
     inkscape:pagecheckerboard="0"
     inkscape:deskcolor="#d1d1d1"
     inkscape:document-units="mm"
     showguides="false"
     inkscape:zoom="0.35355339"
     inkscape:cx="388.90873"
     inkscape:cy="502.04581"
     inkscape:window-width="1920"
     inkscape:window-height="1017"
     inkscape:window-x="-8"
     inkscape:window-y="-8"
     inkscape:window-maximized="1"
     inkscape:current-layer="layer1" /><defs
     id="defs1"><linearGradient
       id="linearGradient98"
       x1="125.563"
       y1="0"
       x2="125.563"
       y2="128.511"
       gradientUnits="userSpaceOnUse"><stop
         stop-color="#FFE178"
         style="stop-color:#ffd53c;stop-opacity:1;"
         id="stop97"
         offset="0" /><stop
         offset="1"
         stop-color="#DD9F00"
         style="stop-color:#DD9F00;stop-color:color(display-p3 0.8667 0.6240 0.0000);stop-opacity:1;"
         id="stop98" /></linearGradient><linearGradient
       id="linearGradient95"
       x1="102.543"
       y1="153.84"
       x2="102.543"
       y2="199.98199"
       gradientUnits="userSpaceOnUse"><stop
         stop-color="#C07F00"
         id="stop94"
         offset="0.00228833"
         style="stop-color:#ffb116;stop-opacity:1;" /><stop
         offset="1"
         stop-color="#DE9300"
         id="stop95"
         style="stop-color:#f09e00;stop-opacity:1;" /></linearGradient><linearGradient
       id="paint0_linear_0_1"
       x1="68.621803"
       y1="19.1542"
       x2="68.621803"
       y2="132.662"
       gradientUnits="userSpaceOnUse"><stop
         stop-color="#FFC600"
         style="stop-color:#FFC600;stop-color:color(display-p3 1.0000 0.7784 0.0000);stop-opacity:1;"
         id="stop8" /><stop
         offset="1"
         stop-color="#FFDE69"
         style="stop-color:#FFDE69;stop-color:color(display-p3 1.0000 0.8698 0.4125);stop-opacity:1;"
         id="stop9" /></linearGradient><linearGradient
       id="paint1_linear_0_1"
       x1="68.861298"
       y1="45.016602"
       x2="68.861298"
       y2="102.489"
       gradientUnits="userSpaceOnUse"><stop
         stop-color="#FFFCDD"
         style="stop-color:#FFFCDD;stop-color:color(display-p3 1.0000 0.9867 0.8667);stop-opacity:1;"
         id="stop10-2" /><stop
         offset="1"
         stop-color="#FFE896"
         style="stop-color:#FFE896;stop-color:color(display-p3 1.0000 0.9088 0.5875);stop-opacity:1;"
         id="stop11-9" /></linearGradient><linearGradient
       id="paint2_linear_0_1-9"
       x1="55.084099"
       y1="49.089401"
       x2="55.084099"
       y2="14.6407"
       gradientUnits="userSpaceOnUse"
       gradientTransform="matrix(0.26458333,0,0,0.26458333,770.83906,230.89295)"><stop
         stop-color="#A21D1D"
         stop-opacity="0"
         style="stop-color:none;stop-opacity:0;"
         id="stop17-0" /><stop
         offset="1"
         stop-color="#5A1414"
         style="stop-color:#5A1414;stop-color:color(display-p3 0.3542 0.0767 0.0767);stop-opacity:1;"
         id="stop18-7" /></linearGradient><linearGradient
       id="paint1_linear_0_1-14"
       x1="119.93"
       y1="12.1307"
       x2="119.93"
       y2="106.044"
       gradientUnits="userSpaceOnUse"><stop
         stop-color="#898989"
         style="stop-color:#898989;stop-color:color(display-p3 0.5375 0.5375 0.5375);stop-opacity:1;"
         id="stop18-35" /><stop
         offset="1"
         stop-color="#5F5F5F"
         style="stop-color:#5F5F5F;stop-color:color(display-p3 0.3708 0.3708 0.3708);stop-opacity:1;"
         id="stop19-15" /></linearGradient><linearGradient
       id="paint0_linear_0_1-0"
       x1="125.563"
       y1="0"
       x2="125.563"
       y2="128.511"
       gradientUnits="userSpaceOnUse"
       gradientTransform="matrix(0.31700126,0,0,0.31700126,633.97132,405.26944)"><stop
         stop-color="#FFE178"
         style="stop-color:#FFE178;stop-color:color(display-p3 1.0000 0.8835 0.4708);stop-opacity:1;"
         id="stop12-41" /><stop
         offset="1"
         stop-color="#DD9F00"
         style="stop-color:#DD9F00;stop-color:color(display-p3 0.8667 0.6240 0.0000);stop-opacity:1;"
         id="stop13-13" /></linearGradient><linearGradient
       inkscape:collect="always"
       xlink:href="#linearGradient95"
       id="linearGradient65-6"
       x1="11.9534"
       y1="153.849"
       x2="97.915802"
       y2="153.849"
       gradientUnits="userSpaceOnUse" /><linearGradient
       inkscape:collect="always"
       xlink:href="#linearGradient98"
       id="linearGradient68-9"
       x1="746.73383"
       y1="262.3382"
       x2="746.73383"
       y2="281.02301"
       gradientUnits="userSpaceOnUse"
       gradientTransform="translate(98.660747,73.21716)" /><linearGradient
       inkscape:collect="always"
       xlink:href="#paint1_linear_0_1-14"
       id="linearGradient70-0"
       x1="739.59814"
       y1="270.82007"
       x2="753.86877"
       y2="270.82007"
       gradientUnits="userSpaceOnUse"
       gradientTransform="translate(98.660747,73.21716)" /><linearGradient
       inkscape:collect="always"
       xlink:href="#paint0_linear_0_1"
       id="linearGradient89"
       gradientUnits="userSpaceOnUse"
       gradientTransform="matrix(0.26458333,0,0,0.26458333,830.7063,304.11011)"
       x1="54.934574"
       y1="208.78345"
       x2="54.934574"
       y2="98.914444" /><linearGradient
       inkscape:collect="always"
       xlink:href="#paint1_linear_0_1"
       id="linearGradient90"
       gradientUnits="userSpaceOnUse"
       gradientTransform="matrix(0.26458333,0,0,0.26458333,830.7063,304.11011)"
       x1="55.514702"
       y1="125.738"
       x2="55.514702"
       y2="176.55" /><linearGradient
       inkscape:collect="always"
       xlink:href="#paint2_linear_0_1-9"
       id="linearGradient91"
       gradientUnits="userSpaceOnUse"
       gradientTransform="matrix(0.26458333,0,0,0.26458333,830.7063,304.11011)"
       x1="55.084099"
       y1="49.089401"
       x2="55.084099"
       y2="14.6407" /><linearGradient
       inkscape:collect="always"
       xlink:href="#paint0_linear_0_1-0"
       id="linearGradient164"
       gradientUnits="userSpaceOnUse"
       gradientTransform="matrix(0.27603019,0,0,0.27603019,810.73536,326.59331)"
       x1="125.563"
       y1="0"
       x2="125.563"
       y2="128.511" /></defs><g
     inkscape:label="Capa 1"
     inkscape:groupmode="layer"
     id="layer1"
     transform="translate(-249.2138,-644.95684)"><g
       id="gold_4"
       transform="translate(-579.02606,340.84673)"><path
         d="m 844.43895,327.41398 c 0.54957,-0.47202 1.36166,-0.47202 1.91123,0 l 2.09011,1.79499 c 0.35359,0.30364 0.83029,0.42117 1.28464,0.31662 l 2.68467,-0.61808 c 0.70608,-0.16253 1.42487,0.21478 1.69234,0.88815 l 1.01633,2.5607 c 0.17198,0.43318 0.53964,0.75885 0.99041,0.87733 l 2.66451,0.70043 c 0.70057,0.18419 1.16181,0.85239 1.08563,1.57284 l -0.28983,2.73975 c -0.0491,0.46348 0.12504,0.92268 0.46897,1.23708 l 2.03408,1.85848 c 0.53466,0.48869 0.63265,1.29469 0.2302,1.89718 l -1.53004,2.29119 c -0.25863,0.3876 -0.31798,0.87516 -0.15926,1.31341 l 0.93712,2.59076 c 0.24649,0.68128 -0.0415,1.44044 -0.67765,1.78693 l -2.41969,1.31775 c -0.40907,0.22292 -0.68814,0.62711 -0.75136,1.08885 l -0.37429,2.72959 c -0.0983,0.71767 -0.70608,1.2562 -1.43039,1.26725 l -2.75478,0.0425 c -0.46594,0.007 -0.90096,0.23546 -1.17146,0.61472 l -1.59988,2.24302 c -0.42067,0.58988 -1.209,0.78421 -1.85548,0.45738 l -2.45888,-1.24269 c -0.41596,-0.21005 -0.9073,-0.21005 -1.32328,0 l -2.45888,1.24269 c -0.64646,0.32683 -1.43479,0.1325 -1.85547,-0.45738 l -1.59986,-2.24302 c -0.27051,-0.37926 -0.70546,-0.60754 -1.17146,-0.61472 l -2.75475,-0.0425 c -0.72439,-0.0111 -1.33211,-0.54958 -1.4305,-1.26725 l -0.37413,-2.72959 c -0.0633,-0.46174 -0.34227,-0.86593 -0.75157,-1.08885 l -2.41951,-1.31775 c -0.63623,-0.34649 -0.92416,-1.10565 -0.67769,-1.78693 l 0.93718,-2.59076 c 0.15856,-0.43825 0.0993,-0.92581 -0.15947,-1.31341 l -1.52998,-2.29119 c -0.40231,-0.60249 -0.30445,-1.40849 0.23038,-1.89718 l 2.03382,-1.85848 c 0.34407,-0.3144 0.51822,-0.7736 0.46917,-1.23708 l -0.28997,-2.73975 c -0.0763,-0.72045 0.38498,-1.38865 1.08566,-1.57284 l 2.66454,-0.70043 c 0.45075,-0.11848 0.81837,-0.44415 0.99031,-0.87733 l 1.01652,-2.5607 c 0.26727,-0.67337 0.98619,-1.05068 1.69228,-0.88815 l 2.68467,0.61808 c 0.45435,0.10455 0.93104,-0.013 1.28464,-0.31662 z"
         fill="url(#paint0_linear_0_1)"
         style="fill:url(#linearGradient164);stroke-width:0.27603"
         id="path7-59-0" /><g
         id="g128"><path
           d="m 831.68758,305.91762 c 0,-0.99826 0.80925,-1.80751 1.80751,-1.80751 h 23.61464 c 0.99814,0 1.8075,0.80925 1.8075,1.80751 v 3.62169 c 0,0.99827 -0.80936,1.80752 -1.80752,1.80752 h -1.50202 v -3.80235 h -20.61056 v 3.80235 h -1.50204 c -0.99826,0 -1.80751,-0.80925 -1.80751,-1.80752 z"
           fill="#FFEEB0"
           style="fill:#ffe37c;fill-opacity:1;stroke-width:0.264583"
           id="path1-1-9-6" /><path
           d="m 831.68758,306.37335 c 0,-0.99827 0.80925,-1.80752 1.80751,-1.80752 h 23.61464 c 0.99814,0 1.8075,0.80925 1.8075,1.80752 v 3.62168 c 0,0.99827 -0.80936,1.80752 -1.80752,1.80752 h -1.50202 v -3.80235 h -20.61056 v 3.80235 h -1.50204 c -0.99826,0 -1.80751,-0.80925 -1.80751,-1.80752 z"
           fill="#F4CC3F"
           style="fill:#f2c422;fill-opacity:1;stroke-width:0.264583"
           id="path2-1-1-4" /><path
           d="m 834.9993,307.95795 h 20.60622 v 14.59306 l -10.30311,7.22882 -10.30311,-7.22882 z"
           fill="#CE4444"
           style="fill:#ce4444;fill-opacity:1;stroke-width:0.264583"
           id="path3-4-1-1" /><g
           mask="url(#mask0_0_1)"
           id="g4-9-0-6"
           transform="matrix(0.26458333,0,0,0.18940064,830.7063,311.40425)"
           style="fill:none"><rect
             x="40.259602"
             y="-18.195101"
             width="29.813299"
             height="115.214"
             fill="#983535"
             style="fill:#983535;fill-opacity:1"
             id="rect4-6-0-7" /></g><rect
           x="843.58521"
           y="325.95432"
           width="3.3117101"
           height="5.6421866"
           rx="1.6558577"
           fill="#C09525"
           style="fill:#f2c422;fill-opacity:1;stroke-width:0.264583"
           id="rect5-5-6-1" /><path
           opacity="0.5"
           d="m 855.64844,317.09832 h -20.73561 v -9.11452 h 20.73561 z"
           fill="url(#paint2_linear_0_1)"
           style="fill:url(#linearGradient91);stroke-width:0.264583"
           id="path12-1-7-2" /></g><g
         id="g119"
         transform="translate(0.15348386,-0.71568078)"><circle
           cx="845.24109"
           cy="344.81598"
           r="14.534754"
           fill="url(#paint0_linear_0_1)"
           style="fill:url(#linearGradient89);stroke-width:0.264583"
           id="circle5-0-2-9" /><circle
           cx="845.24109"
           cy="344.81598"
           r="11.345704"
           fill="#705100"
           style="fill:#705100;fill-opacity:1;stroke-width:0.264583"
           id="circle6-1-9-1" /><g
           mask="url(#mask1_0_1)"
           id="g8-0-8-5"
           transform="matrix(0.26458333,0,0,0.26458333,830.7063,304.11011)"
           style="fill:none"><circle
             cx="54.934601"
             cy="153.849"
             r="42.981201"
             fill="#F5B307"
             style="fill:url(#linearGradient65-6);fill-opacity:1"
             id="circle8-2-0-5" /></g><circle
           fill="#C18222"
           style="fill:url(#linearGradient68-9);fill-opacity:1;stroke-width:0.264583"
           id="circle9-1-0-9"
           cy="344.89777"
           cx="845.39459"
           r="9.3424101" /><path
           d="m 845.39456,337.37829 2.20269,4.48125 4.40536,0.56012 -3.02501,3.4507 0.82233,4.95194 -4.40537,-2.24076 -4.40533,2.24076 0.82965,-4.95194 -3.03234,-3.4507 4.40537,-0.56012 z"
           fill="url(#paint1_linear_0_1)"
           style="fill:url(#linearGradient90);stroke-width:0.264583"
           id="path10-1-4-2" /><path
           d="m 845.39456,337.37829 2.20269,4.48125 4.40536,0.56012 -3.02501,3.4507 0.82233,4.95194 -4.40537,-2.24076 -4.40533,2.24076 0.82965,-4.95194 -3.03234,-3.4507 4.40537,-0.56012 z"
           stroke="#A36D1D"
           stroke-opacity="0.2"
           style="fill:none;stroke:url(#linearGradient70-0);stroke-opacity:0.2"
           stroke-width="0.529167"
           mask="url(#path-12-outside-1_0_1)"
           id="path11-2-3-4" /></g></g></g></svg>
