<?xml version="1.0" encoding="UTF-8" standalone="no"?>
<!-- Created with Inkscape (http://www.inkscape.org/) -->

<svg
   width="9.4295759mm"
   height="8.9846907mm"
   viewBox="0 0 9.4295759 8.9846907"
   version="1.1"
   id="svg1"
   xml:space="preserve"
   xmlns:inkscape="http://www.inkscape.org/namespaces/inkscape"
   xmlns:sodipodi="http://sodipodi.sourceforge.net/DTD/sodipodi-0.dtd"
   xmlns="http://www.w3.org/2000/svg"
   xmlns:svg="http://www.w3.org/2000/svg"><sodipodi:namedview
     id="namedview1"
     pagecolor="#ffffff"
     bordercolor="#000000"
     borderopacity="0.25"
     inkscape:showpageshadow="2"
     inkscape:pageopacity="0.0"
     inkscape:pagecheckerboard="0"
     inkscape:deskcolor="#d1d1d1"
     inkscape:document-units="mm" /><defs
     id="defs1" /><g
     inkscape:label="Capa 1"
     inkscape:groupmode="layer"
     id="layer1"
     transform="translate(-147.29299,-215.17016)"><g
       id="g2"
       transform="matrix(0.0656202,0,0,0.0656202,133.24157,178.94613)"
       inkscape:export-filename="isotipo_simulabank_sidebar.svg"
       inkscape:export-xdpi="96"
       inkscape:export-ydpi="96"><g
         id="g10"
         transform="matrix(0.99921605,0,0,0.99921605,-878.27973,-795.78744)"
         inkscape:export-filename="Users\Equipo\Desktop\Documentacion Proyecto\isotipo_simulabank.svg"
         inkscape:export-xdpi="96"
         inkscape:export-ydpi="96"><path
           style="fill:#05325c;fill-opacity:1;stroke:#05325c;stroke-width:0.13292;stroke-linecap:round;stroke-linejoin:round;stroke-dasharray:none;stroke-opacity:1"
           d="m 1202.3667,1364.4451 -22.4676,38.2219 19.8775,34.404 c 0.01,8.88 18.7157,5.6291 22.7025,1.615 0.5125,-0.5161 5.1537,-9.5805 5.4186,-10.1448 2.7815,-5.9253 5.0949,-11.821 0.2978,-19.9413 z"
           id="path2"
           sodipodi:nodetypes="cccsscc" /><path
           d="m 1184.7469,1480.0728 c 5.7558,-0.2628 10.8998,0.351 15.5557,-3.1553 3.413,-3.1606 7.8904,-9.3156 11.6497,-16.5964 -5.7853,4.5592 -13.333,4.1671 -26.2163,4.1251 l -39.081,0.1786 -9.0079,15.4053 z"
           style="fill:#0b63b7;fill-opacity:1;stroke:#0b63b7;stroke-width:0.13292;stroke-linecap:round;stroke-linejoin:round;stroke-opacity:1"
           id="path3"
           sodipodi:nodetypes="ccccccc" /><g
           id="g7"><path
             style="fill:#009040;fill-opacity:1;stroke:#009040;stroke-width:0.13292;stroke-linecap:round;stroke-linejoin:round;stroke-dasharray:none;stroke-opacity:1"
             d="m 1127.9841,1470.3225 22.4676,-38.2219 -19.8775,-34.404 c -0.01,-8.88 -18.7157,-5.6291 -22.7025,-1.615 -0.5125,0.5161 -5.1537,9.5805 -5.4186,10.1448 -2.7815,5.9253 -5.0949,11.821 -0.2978,19.9413 z"
             id="path4"
             sodipodi:nodetypes="cccsscc" /><path
             d="m 1131.5635,1382.0699 c -5.7557,0.2628 -12.2439,-0.076 -16.1212,4.1676 -5.675,6.1666 -9.7655,12.7677 -12.9892,19.9889 3.0079,-4.5718 14.7069,-8.0992 28.1213,-8.5298 l 39.081,-0.1787 9.0078,-15.4052 z"
             style="fill:#00ae4d;fill-opacity:1;stroke:#00ae4d;stroke-width:0.133;stroke-linecap:round;stroke-linejoin:round;stroke-dasharray:none;stroke-opacity:1"
             id="path5"
             sodipodi:nodetypes="ccccccc" /><path
             style="fill:#009040;fill-opacity:1;stroke:#009040;stroke-width:0.13292;stroke-linecap:round;stroke-linejoin:round;stroke-dasharray:none;stroke-opacity:1"
             d="m 1127.9841,1470.3225 22.4676,-38.2219 -19.8775,-34.404 c -13.4144,0.4299 -25.7956,3.5759 -28.1211,8.5298 -2.7816,5.9253 -5.0949,11.821 -0.2978,19.9413 z"
             id="path6"
             sodipodi:nodetypes="cccscc" /><path
             d="m 1145.6039,1354.6948 c -5.7558,0.2628 -10.8998,-0.351 -15.5557,3.1553 -3.413,3.1606 -7.8904,9.3156 -11.6497,16.5964 5.7853,-4.5592 13.333,-4.1671 26.2163,-4.1251 l 39.081,-0.1786 9.0079,-15.4053 z"
             style="fill:#00c859;fill-opacity:1;stroke:#00c859;stroke-width:0.13292;stroke-linecap:round;stroke-linejoin:round;stroke-opacity:1"
             id="path7"
             sodipodi:nodetypes="ccccccc" /></g><path
           d="m 1198.7873,1452.6977 c 5.7557,-0.2628 12.2439,0.076 16.1212,-4.1676 5.675,-6.1666 9.7655,-12.7677 12.9892,-19.9889 -3.0079,4.5718 -14.7069,8.0992 -28.1213,8.5298 l -39.081,0.1787 -9.0078,15.4052 z"
           style="fill:#08549d;fill-opacity:1;stroke:#08549d;stroke-width:0.133;stroke-linecap:round;stroke-linejoin:round;stroke-dasharray:none;stroke-opacity:1"
           id="path9"
           sodipodi:nodetypes="ccccccc" /><path
           style="fill:#07457e;fill-opacity:1;stroke:#07457e;stroke-width:0.133;stroke-linecap:round;stroke-linejoin:round;stroke-dasharray:none;stroke-opacity:1"
           d="m 1202.3667,1364.4451 -22.4676,38.2219 19.8775,34.404 c 13.4144,-0.4299 25.7956,-3.5759 28.1211,-8.5298 2.7816,-5.9253 5.0949,-11.821 0.2978,-19.9413 z"
           id="path10"
           sodipodi:nodetypes="cccscc" /></g><rect
         style="fill:none;fill-opacity:1;stroke:none;stroke-width:0.135117;stroke-linecap:round;stroke-linejoin:round;stroke-opacity:1"
         id="rect11"
         width="143.69945"
         height="136.91956"
         x="214.13252"
         y="552.02545"
         ry="0.27249408"
         inkscape:export-filename="Users\Equipo\Desktop\ea\mmm.png"
         inkscape:export-xdpi="96"
         inkscape:export-ydpi="96" /></g></g></svg>
