<?xml version="1.0" encoding="UTF-8" standalone="no"?>
<!-- Created with Inkscape (http://www.inkscape.org/) -->

<svg
   width="143.69949mm"
   height="136.91957mm"
   viewBox="0 0 143.69949 136.91957"
   version="1.1"
   id="svg1"
   xml:space="preserve"
   xmlns="http://www.w3.org/2000/svg"
   xmlns:svg="http://www.w3.org/2000/svg"><defs
     id="defs1" /><g
     id="layer1"
     transform="translate(-422.69059,-432.25873)"><g
       id="g28"
       transform="translate(237.3302,-136.88337)"><path
         style="fill:#000000;fill-opacity:1;stroke:#000000;stroke-width:0.132816;stroke-linecap:round;stroke-linejoin:round;stroke-dasharray:none;stroke-opacity:1"
         d="m 294.37224,584.70461 -22.44998,38.19194 19.86192,34.37703 c 0.01,8.87304 18.70102,5.62469 22.6847,1.61373 0.5121,-0.51569 5.14966,-9.57299 5.41435,-10.13684 2.77932,-5.92066 5.09091,-11.81174 0.29757,-19.92567 z"
         id="path2-4" /><path
         style="fill:#000000;fill-opacity:1;stroke:#000000;stroke-width:0.132896;stroke-linecap:round;stroke-linejoin:round;stroke-dasharray:none;stroke-opacity:1"
         d="m 294.37224,584.70461 -22.44998,38.19194 19.86192,34.37703 c 13.40388,-0.42956 25.77537,-3.5731 28.09905,-8.52311 2.77942,-5.92066 5.09091,-11.81174 0.29757,-19.92567 z"
         id="path10-5" /><path
         d="m 276.76626,700.24167 c 5.75129,-0.2626 10.89125,0.35072 15.5435,-3.15283 3.41033,-3.15812 7.88422,-9.3083 11.64057,-16.58339 -5.78076,4.55563 -13.32255,4.16383 -26.19575,4.12187 l -39.05036,0.17846 -9.00084,15.39322 z"
         style="fill:#000000;fill-opacity:1;stroke:#000000;stroke-width:0.132816;stroke-linecap:round;stroke-linejoin:round;stroke-opacity:1"
         id="path3-2" /><path
         style="fill:#000000;fill-opacity:1;stroke:#000000;stroke-width:0.132816;stroke-linecap:round;stroke-linejoin:round;stroke-dasharray:none;stroke-opacity:1"
         d="m 220.04796,690.49901 22.44998,-38.19194 -19.86191,-34.37702 c -0.01,-8.87304 -18.70103,-5.62469 -22.68471,-1.61374 -0.51209,0.5157 -5.14966,9.57299 -5.41435,10.13685 -2.77932,5.92065 -5.0909,11.81173 -0.29756,19.92567 z"
         id="path4-2" /><path
         style="fill:#000000;fill-opacity:1;stroke:#000000;stroke-width:0.132816;stroke-linecap:round;stroke-linejoin:round;stroke-dasharray:none;stroke-opacity:1"
         d="m 220.04796,690.49901 22.44998,-38.19194 -19.86191,-34.37702 c -13.40389,0.42956 -25.77538,3.57309 -28.09906,8.52311 -2.77942,5.92065 -5.0909,11.81173 -0.29756,19.92567 z"
         id="path6-1" /><path
         d="m 223.62455,602.3156 c -5.75119,0.26259 -12.2343,-0.0759 -16.10856,4.16433 -5.67055,6.16176 -9.75785,12.75769 -12.97902,19.97323 3.00554,-4.56822 14.69537,-8.09285 28.09926,-8.52311 l 39.05036,-0.17856 9.00074,-15.39313 z"
         style="fill:#000000;fill-opacity:1;stroke:#000000;stroke-width:0.132896;stroke-linecap:round;stroke-linejoin:round;stroke-dasharray:none;stroke-opacity:1"
         id="path5-2" /><path
         d="m 237.65394,574.96196 c -5.75128,0.26259 -10.89125,-0.35073 -15.5435,3.15282 -3.41033,3.15813 -7.88422,9.3083 -11.64057,16.58339 5.78077,-4.55562 13.32255,-4.16383 26.19575,-4.12186 l 39.05036,-0.17846 9.00084,-15.39323 z"
         style="fill:#000000;fill-opacity:1;stroke:#000000;stroke-width:0.132816;stroke-linecap:round;stroke-linejoin:round;stroke-opacity:1"
         id="path7-6" /><path
         d="m 290.79565,672.88803 c 5.75119,-0.2626 12.2343,0.0759 16.10856,-4.16434 5.67055,-6.16176 9.75785,-12.75769 12.97902,-19.97322 -3.00554,4.56821 -14.69537,8.09285 -28.09925,8.52311 l -39.05037,0.17856 -9.00074,15.39312 z"
         style="fill:#000000;fill-opacity:1;stroke:#000000;stroke-width:0.132896;stroke-linecap:round;stroke-linejoin:round;stroke-dasharray:none;stroke-opacity:1"
         id="path9-8" /><rect
         style="fill:none;fill-opacity:1;stroke:none;stroke-width:0.135117;stroke-linecap:round;stroke-linejoin:round;stroke-opacity:1"
         id="rect11-7"
         width="143.69945"
         height="136.91956"
         x="185.36038"
         y="569.14209"
         ry="0.27249408" /></g></g></svg>
