<?xml version="1.0" encoding="UTF-8" standalone="no"?>
<!-- Created with Inkscape (http://www.inkscape.org/) -->

<svg
   width="137.94438mm"
   height="104.74833mm"
   viewBox="0 0 137.94438 104.74833"
   version="1.1"
   id="svg1"
   xml:space="preserve"
   xmlns:inkscape="http://www.inkscape.org/namespaces/inkscape"
   xmlns:sodipodi="http://sodipodi.sourceforge.net/DTD/sodipodi-0.dtd"
   xmlns="http://www.w3.org/2000/svg"
   xmlns:svg="http://www.w3.org/2000/svg"><sodipodi:namedview
     id="namedview1"
     pagecolor="#ffffff"
     bordercolor="#000000"
     borderopacity="0.25"
     inkscape:showpageshadow="2"
     inkscape:pageopacity="0.0"
     inkscape:pagecheckerboard="0"
     inkscape:deskcolor="#d1d1d1"
     inkscape:document-units="mm"><inkscape:page
       x="-2.6462171e-13"
       y="0"
       width="137.9444"
       height="104.74833"
       id="page2"
       margin="0"
       bleed="0" /></sodipodi:namedview><defs
     id="defs1" /><g
     inkscape:label="Capa 1"
     inkscape:groupmode="layer"
     id="layer1"
     transform="translate(-100.05635,-322.5304)"><g
       style="fill:none"
       id="g2"
       transform="matrix(0.26458333,0,0,0.26458333,100.05636,322.53055)"><path
         d="m 181.881,280.854 c 2.387,-7.026 3.94,-14.4 4.577,-21.999 l -15.17,-7.348 c 0.017,-2.458 -0.071,-4.936 -0.293,-7.424 -0.062,-0.861 -0.178,-1.705 -0.275,-2.561 l 14.271,-9.019 c -1.484,-7.491 -3.844,-14.647 -6.981,-21.336 l -16.857,1.223 c -1.644,-2.92 -3.481,-5.726 -5.478,-8.382 l 7.845,-14.922 c -4.956,-5.636 -10.584,-10.665 -16.736,-14.978 l -13.976,9.474 c -2.863,-1.687 -5.839,-3.203 -8.924,-4.531 l -0.662,-16.842 c -7.023,-2.386 -14.404,-3.942 -21.992,-4.596 l -7.3513,15.184 c -2.4567,-0.022 -4.9209,0.074 -7.4214,0.289 -0.8671,0.075 -1.7152,0.184 -2.5629,0.286 l -9.005,-14.287 c -7.5005,1.498 -14.6572,3.858 -21.3533,6.99 l 1.2277,16.855 c -2.9164,1.65 -5.7255,3.48 -8.3754,5.485 l -14.932,-7.851 c -5.6465,4.966 -10.6752,10.589 -14.9688,16.749 l 9.4822,13.969 c -1.6978,2.866 -3.2265,5.839 -4.5424,8.915 L 4.57679,220.859 C 2.19122,227.884 0.645455,235.25 0,242.859 l 15.1778,7.348 c -0.0159,2.461 0.0643,4.935 0.2783,7.426 0.0768,0.86 0.1842,1.701 0.2987,2.559 l -14.28655,9.012 c 1.50228,7.492 3.85118,14.648 6.9877,21.339 l 16.84955,-1.221 c 1.6523,2.917 3.4821,5.711 5.4797,8.378 l -7.8479,14.917 c 4.9568,5.655 10.5953,10.681 16.7444,14.981 l 13.9697,-9.476 c 2.8707,1.704 5.8491,3.225 8.9237,4.54 l 0.6636,16.847 c 7.0232,2.379 14.3826,3.939 21.9813,4.581 l 7.3685,-15.178 c 2.4487,0.015 4.9315,-0.069 7.4235,-0.283 0.856,-0.069 1.704,-0.187 2.544,-0.295 l 9.012,14.298 c 7.51,-1.501 14.657,-3.853 21.356,-6.984 l -1.218,-16.861 c 2.905,-1.661 5.705,-3.485 8.375,-5.482 l 14.923,7.847 c 5.636,-4.966 10.664,-10.585 14.967,-16.743 l -9.465,-13.97 c 1.682,-2.871 3.2,-5.849 4.535,-8.928 z m -88.6478,25.018 c -30.342,0 -55.0179,-24.68 -55.0179,-55.016 0,-30.334 24.6759,-55.015 55.0179,-55.015 30.3328,0 55.0118,24.681 55.0118,55.015 0,30.336 -24.678,55.016 -55.0118,55.016 z"
         fill="#616e7d"
         id="path1-0" /><path
         d="m 42.1465,250.857 c 0,28.166 22.9093,51.085 51.0866,51.085 28.1689,0 51.0789,-22.919 51.0789,-51.085 0,-28.168 -22.91,-51.087 -51.0789,-51.087 -28.1773,0 -51.0866,22.919 -51.0866,51.087 z M 131.675,247.5 c 1.847,21.245 -13.861,39.962 -35.0925,41.805 -21.232,1.858 -39.9547,-13.869 -41.8094,-35.095 -1.8377,-21.235 13.8714,-39.955 35.1022,-41.798 21.2407,-1.855 39.9637,13.864 41.7997,35.088 z"
         fill="#616e7d"
         id="path2-9" /><path
         d="m 190.629,324.275 c -0.505,24.14 18.724,44.191 42.86,44.695 24.139,0.508 44.188,-18.724 44.692,-42.857 0.511,-24.138 -18.715,-44.189 -42.863,-44.695 -24.138,-0.506 -44.187,18.719 -44.689,42.857 z m 66.84,-13.41 c 7.51,12.699 3.307,29.086 -9.392,36.599 -12.864,7.603 -29.483,3.192 -36.87,-9.869 -6.928,-12.267 -2.774,-28.419 9.207,-35.835 12.759,-7.9 29.45,-3.73 37.055,9.105 z"
         fill="#616e7d"
         id="path3-4" /><path
         d="m 304.767,332.136 c 0.496,-5.094 0.452,-10.226 -0.157,-15.362 l -11.912,-2.849 c -0.626,-3.122 -1.511,-6.237 -2.625,-9.288 l 8.729,-8.614 c -1.049,-2.317 -2.233,-4.602 -3.558,-6.832 -1.31,-2.222 -2.74,-4.349 -4.269,-6.389 l -11.752,3.512 c -2.136,-2.465 -4.435,-4.727 -6.891,-6.767 l 3.253,-11.813 c -4.206,-3.005 -8.686,-5.522 -13.386,-7.538 l -8.438,8.925 c -3.04,-1.053 -6.161,-1.854 -9.322,-2.404 L 241.32,254.83 c -5.082,-0.492 -10.222,-0.437 -15.33,0.19 l -2.874,11.906 c -3.127,0.607 -6.218,1.487 -9.268,2.619 l -8.621,-8.722 c -2.298,1.039 -4.603,2.208 -6.83,3.54 -2.228,1.312 -4.356,2.746 -6.39,4.258 l 3.5,11.772 c -2.456,2.14 -4.719,4.434 -6.761,6.885 l -11.812,-3.243 c -3.012,4.192 -5.522,8.676 -7.537,13.364 l 8.916,8.446 c -1.052,3.044 -1.829,6.164 -2.386,9.325 l -11.875,3.117 c -0.502,5.083 -0.451,10.225 0.159,15.349 l 11.929,2.838 c 0.609,3.14 1.483,6.237 2.597,9.304 l -8.721,8.61 c 1.043,2.32 2.216,4.593 3.542,6.812 1.325,2.238 2.749,4.374 4.268,6.402 l 11.768,-3.503 c 2.131,2.456 4.447,4.716 6.885,6.754 l -3.235,11.827 c 4.199,2.999 8.668,5.528 13.351,7.518 l 8.457,-8.909 c 3.05,1.06 6.14,1.851 9.33,2.393 l 3.109,11.885 c 5.073,0.481 10.225,0.449 15.349,-0.164 l 2.837,-11.923 c 3.135,-0.605 6.236,-1.487 9.285,-2.617 l 8.65,8.727 c 2.298,-1.033 4.576,-2.218 6.804,-3.538 2.234,-1.318 4.346,-2.747 6.386,-4.278 l -3.498,-11.752 c 2.457,-2.135 4.72,-4.444 6.759,-6.887 l 11.822,3.239 c 3.004,-4.198 5.532,-8.681 7.52,-13.368 l -8.915,-8.457 c 1.043,-3.023 1.855,-6.135 2.403,-9.31 z m -71.32,38.73 c -25.18,-0.526 -45.239,-21.445 -44.708,-46.63 0.52,-25.181 21.435,-45.241 46.625,-44.712 25.182,0.526 45.236,21.445 44.717,46.63 -0.531,25.183 -21.443,45.243 -46.634,44.712 z"
         fill="#616e7d"
         id="path4-8" /><path
         d="m 38.2148,250.857 c 0,30.336 24.6759,55.016 55.018,55.016 30.3332,0 55.0112,-24.68 55.0112,-55.016 0,-30.334 -24.678,-55.015 -55.0112,-55.015 -30.3421,-0.001 -55.018,24.681 -55.018,55.015 z m 106.0972,0 c 0,28.166 -22.91,51.085 -51.0789,51.085 -28.1773,0 -51.0865,-22.919 -51.0865,-51.085 0,-28.168 22.9092,-51.087 51.0865,-51.087 28.1689,0 51.0789,22.919 51.0789,51.087 z"
         fill="#aad4c8"
         id="path5-8" /><path
         d="m 188.737,324.236 c -0.531,25.185 19.528,46.104 44.709,46.63 25.191,0.531 46.102,-19.529 46.633,-44.712 0.52,-25.185 -19.535,-46.104 -44.717,-46.63 -25.189,-0.529 -46.104,19.531 -46.625,44.712 z m 89.444,1.878 c -0.505,24.133 -20.554,43.365 -44.693,42.857 -24.136,-0.504 -43.364,-20.556 -42.859,-44.695 0.502,-24.138 20.551,-43.363 44.689,-42.857 24.148,0.506 43.373,20.557 42.863,44.695 z"
         fill="#82bfab"
         id="path6-2" /><path
         d="m 406.905,188.713 2.286,9.055 7.601,-1.919 -2.286,-9.055 z"
         fill="#c5c5c5"
         id="path7-4" /><path
         d="m 329.71,210.102 2.286,9.054 7.601,-1.919 -2.286,-9.054 z"
         fill="#dedede"
         id="path8-5" /><path
         d="m 377.036,187.62 4.516,-14.774 c 0.636,-2.082 -0.06,-5.18 -1.547,-6.884 l -15.421,-17.664 c -1.488,-1.703 -0.961,-2.565 1.17,-1.915 0,0 24.019,7.328 33.62,18.324 5.953,6.82 9.448,14.347 10.724,21.839 l -35.213,4.088 c 1.004,-0.823 1.812,-1.904 2.151,-3.014 z"
         fill="#c5c5c5"
         id="path9-5" /><path
         d="m 334.659,213.669 c -11.517,-14.902 -9.483,-43.52 -9.483,-43.52 0.165,-2.324 1.588,-2.751 3.162,-0.948 l 19.925,22.823 c 1.574,1.802 4.722,2.974 6.997,2.604 l 16.135,-2.625 c 1.062,-0.173 2.152,-0.727 3.083,-1.49 l 36.747,-4.266 z"
         fill="#c5c5c5"
         id="path10-1" /><path
         d="m 411.225,186.246 -76.566,27.422 c 0.328,0.423 0.708,0.802 1.013,1.237 11.151,15.93 32.351,18.267 48.731,18.802 19.81,29.239 95.315,140.628 101.117,148.418 6.684,8.973 18.829,15.036 29.902,4.91 11.074,-10.127 3.276,-25.046 3.276,-25.046 l -111.9,-140.636 c 13.741,-10.065 6.355,-26.859 4.941,-35.167 z m 99.199,179.585 c 3.683,4.767 2.998,11.468 -1.529,14.966 -4.528,3.498 -11.184,2.469 -14.867,-2.298 -3.683,-4.767 -2.998,-11.467 1.529,-14.965 4.528,-3.498 11.184,-2.47 14.867,2.297 z"
         fill="#dedede"
         id="path11-7" /><path
         d="m 487.075,359.247 7.888,-5.872 -94.981,-127.126 -7.888,5.872 z"
         fill="#c5c5c5"
         id="path12-1" /><path
         d="m 362.027,213.46 26.169,-8.111 -4.965,-13.712 -26.168,8.111 z"
         fill="#c5c5c5"
         id="path13-1" /><path
         d="m 381.627,208.457 3.591,-0.267 -2.151,-17.005 -3.592,0.267 z"
         fill="#dedede"
         id="path14-5" /><path
         d="m 375.148,210.276 3.592,-0.268 -2.152,-17.005 -3.591,0.268 z"
         fill="#dedede"
         id="path15-2" /><path
         d="m 368.67,212.094 3.591,-0.267 -2.151,-17.005 -3.592,0.267 z"
         fill="#dedede"
         id="path16-7" /><path
         d="m 362.191,213.912 3.592,-0.267 -2.152,-17.005 -3.591,0.268 z"
         fill="#dedede"
         id="path17-6" /><path
         d="m 216.5,95.6133 v 13.4997 l -73,-30.4997 v -14.5 l 73,-31 v 14.5 l -56,24 z"
         fill="#07457e"
         id="path18-1" /><path
         d="m 281,95.6133 v 13.4997 l 73,-30.4997 v -14.5 l -73,-31 v 14.5 l 57,24 z"
         fill="#07457e"
         id="path19-4" /><path
         d="m 236.5,125.113 -14,-4 L 261,0.613281 275,4.61328 Z"
         fill="#07457e"
         id="path20-2" /><path
         d="m 216.5,95.6133 v 13.4997 l -73,-30.4997 v -14.5 l 73,-31 v 14.5 l -56,24 z"
         stroke="#07457e"
         id="path21-3" /><path
         d="m 281,95.6133 v 13.4997 l 73,-30.4997 v -14.5 l -73,-31 v 14.5 l 57,24 z"
         stroke="#07457e"
         id="path22-2" /><path
         d="m 236.5,125.113 -14,-4 L 261,0.613281 275,4.61328 Z"
         stroke="#07457e"
         id="path23-2" /></g></g></svg>
