<?xml version="1.0" encoding="UTF-8" standalone="no"?>
<!-- Created with Inkscape (http://www.inkscape.org/) -->

<svg
   width="122.42525mm"
   height="115.8166mm"
   viewBox="0 0 122.42525 115.8166"
   version="1.1"
   id="svg1"
   xml:space="preserve"
   xmlns:inkscape="http://www.inkscape.org/namespaces/inkscape"
   xmlns:sodipodi="http://sodipodi.sourceforge.net/DTD/sodipodi-0.dtd"
   xmlns="http://www.w3.org/2000/svg"
   xmlns:svg="http://www.w3.org/2000/svg"><sodipodi:namedview
     id="namedview1"
     pagecolor="#ffffff"
     bordercolor="#000000"
     borderopacity="0.25"
     inkscape:showpageshadow="2"
     inkscape:pageopacity="0.0"
     inkscape:pagecheckerboard="0"
     inkscape:deskcolor="#d1d1d1"
     inkscape:document-units="mm"><inkscape:page
       x="0"
       y="0"
       width="122.42525"
       height="115.8166"
       id="page2"
       margin="0"
       bleed="0" /></sodipodi:namedview><defs
     id="defs1" /><g
     inkscape:label="Capa 1"
     inkscape:groupmode="layer"
     id="layer1"
     transform="translate(-43.826949,-90.522955)"><g
       style="fill:none"
       id="g1"
       transform="matrix(0.26458333,0,0,0.26458333,43.826953,90.522955)"><path
         d="m 202.121,437.732 c 111.629,0 202.122,-12.795 202.122,-28.578 0,-15.783 -90.493,-28.578 -202.122,-28.578 C 90.4928,380.576 0,393.371 0,409.154 c 0,15.783 90.4928,28.578 202.121,28.578 z"
         fill="#ebebeb"
         id="path1" /><path
         d="m 146.086,39.5506 c -2.849,0 -5.433,-0.5573 -7.751,-1.6706 -2.32,-1.1133 -4.31,-2.5927 -5.971,-4.4368 -1.662,-1.8428 -2.949,-3.9528 -3.862,-6.3258 -0.912,-2.373 -1.369,-4.8016 -1.369,-7.2858 0,-2.5926 0.483,-5.0755 1.451,-7.4498 0.967,-2.373 2.301,-4.47347 3.999,-6.3 1.697,-1.82654 3.715,-3.27745 6.053,-4.35547 2.336,-1.076667 4.875,-1.615002 7.614,-1.615002 2.812,0 5.376,0.574943 7.696,1.724832 2.319,1.14989 4.3,2.6564 5.944,4.51955 1.643,1.86314 2.921,3.98119 3.834,6.35419 0.913,2.3744 1.37,4.784 1.37,7.2316 0,2.594 -0.476,5.066 -1.424,7.4227 -0.95,2.3554 -2.264,4.4369 -3.944,6.2444 -1.68,1.8075 -3.689,3.2503 -6.025,4.327 -2.339,1.0766 -4.876,1.615 -7.615,1.615 z M 134.801,19.8303 c 0,1.6801 0.255,3.3059 0.766,4.8748 0.511,1.5702 1.25,2.9588 2.219,4.1629 0.966,1.2055 2.154,2.1723 3.56,2.9032 1.405,0.7309 3.004,1.0957 4.794,1.0957 1.825,0 3.441,-0.3743 4.848,-1.1228 1.406,-0.7472 2.592,-1.7438 3.56,-2.9859 0.967,-1.2408 1.698,-2.6374 2.192,-4.1901 0.493,-1.5526 0.739,-3.131 0.739,-4.7392 0,-1.6787 -0.266,-3.3045 -0.795,-4.8748 -0.53,-1.5702 -1.279,-2.9574 -2.245,-4.1629 -0.969,-1.2055 -2.155,-2.16283 -3.56,-2.87609 -1.406,-0.7119 -2.986,-1.06853 -4.738,-1.06853 -1.826,0 -3.451,0.37426 -4.876,1.12277 -1.424,0.74851 -2.61,1.73432 -3.559,2.95745 -0.951,1.2245 -1.671,2.6116 -2.165,4.1629 -0.493,1.5553 -0.74,3.1337 -0.74,4.7406 z"
         fill="#263238"
         id="path2" /><path
         d="m 183.444,39.8253 c -2.338,0 -4.437,-0.4014 -6.299,-1.2055 -1.863,-0.8027 -3.442,-1.8903 -4.739,-3.2585 -1.296,-1.3695 -2.291,-2.9493 -2.986,-4.7392 -0.694,-1.7885 -1.041,-3.6707 -1.041,-5.6423 0,-2.0082 0.347,-3.9066 1.041,-5.6966 0.693,-1.7885 1.69,-3.3683 2.986,-4.7378 1.297,-1.3696 2.876,-2.4557 4.739,-3.2598 1.862,-0.8028 3.961,-1.2055 6.299,-1.2055 2.336,0 4.427,0.4027 6.273,1.2055 1.843,0.8041 3.414,1.8902 4.711,3.2598 1.296,1.3695 2.291,2.9493 2.986,4.7378 0.692,1.79 1.04,3.6884 1.04,5.6966 0,1.9716 -0.348,3.8538 -1.04,5.6423 -0.695,1.7899 -1.681,3.3683 -2.958,4.7392 -1.279,1.3696 -2.849,2.4571 -4.711,3.2585 -1.864,0.8028 -3.965,1.2055 -6.301,1.2055 z m -7.505,-14.8455 c 0,1.2787 0.192,2.4381 0.575,3.4781 0.383,1.0415 0.912,1.9445 1.587,2.712 0.676,0.7662 1.47,1.3601 2.383,1.7805 0.913,0.4203 1.898,0.6305 2.959,0.6305 1.059,0 2.045,-0.2102 2.957,-0.6305 0.913,-0.419 1.707,-1.013 2.383,-1.7805 0.675,-0.7675 1.205,-1.68 1.588,-2.7391 0.383,-1.059 0.574,-2.2265 0.574,-3.5052 0,-1.2408 -0.192,-2.3907 -0.574,-3.4511 -0.384,-1.059 -0.913,-1.9716 -1.588,-2.7391 -0.677,-0.7675 -1.472,-1.36 -2.383,-1.7804 -0.912,-0.4204 -1.898,-0.6305 -2.957,-0.6305 -1.061,0 -2.046,0.2196 -2.959,0.6576 -0.913,0.438 -1.707,1.0414 -2.383,1.8076 -0.676,0.7675 -1.205,1.68 -1.587,2.7391 -0.384,1.0604 -0.575,2.2103 -0.575,3.451 z"
         fill="#263238"
         id="path3" /><path
         d="m 220.582,39.8253 c -2.264,0 -4.236,-0.5017 -5.915,-1.5065 -1.68,-1.0035 -2.995,-2.3635 -3.944,-4.0802 v 16.7072 h -7.34 V 10.5737 h 6.408 v 4.929 c 1.059,-1.6787 2.429,-3.0035 4.109,-3.9717 1.679,-0.9668 3.615,-1.4509 5.805,-1.4509 1.936,0 3.725,0.3932 5.368,1.1783 1.644,0.7852 3.06,1.8442 4.246,3.1771 1.187,1.333 2.118,2.9032 2.795,4.7108 0.675,1.8075 1.013,3.7168 1.013,5.725 0,2.0815 -0.311,4.0355 -0.932,5.8607 -0.621,1.8265 -1.489,3.4157 -2.602,4.7663 -1.115,1.3519 -2.438,2.4096 -3.972,3.1771 -1.532,0.7661 -3.212,1.1499 -5.039,1.1499 z m -2.464,-6.2444 c 1.096,0 2.109,-0.2373 3.041,-0.7119 0.93,-0.4746 1.724,-1.1133 2.382,-1.9174 0.656,-0.8027 1.168,-1.7343 1.534,-2.7947 0.366,-1.059 0.548,-2.1533 0.548,-3.2856 0,-1.2055 -0.201,-2.3282 -0.603,-3.3683 -0.402,-1.0414 -0.958,-1.9445 -1.67,-2.712 -0.712,-0.7661 -1.553,-1.3695 -2.52,-1.8075 -0.968,-0.438 -2.017,-0.6577 -3.148,-0.6577 -0.694,0 -1.406,0.1193 -2.136,0.3566 -0.731,0.2373 -1.406,0.575 -2.027,1.0143 -0.621,0.438 -1.177,0.9506 -1.671,1.5337 -0.492,0.5844 -0.868,1.2244 -1.122,1.9173 v 6.738 c 0.657,1.6435 1.662,3.0035 3.013,4.0802 1.347,1.0767 2.809,1.615 4.379,1.615 z"
         fill="#263238"
         id="path4" /><path
         d="m 248.957,39.8242 c -2.41,0 -4.766,-0.3837 -7.066,-1.1498 -2.301,-0.7662 -4.273,-1.8632 -5.916,-3.287 l 2.739,-4.6009 c 1.753,1.2421 3.46,2.1818 5.121,2.8205 1.663,0.64 3.314,0.9587 4.958,0.9587 1.459,0 2.61,-0.2739 3.451,-0.8218 0.839,-0.5478 1.26,-1.3329 1.26,-2.3553 0,-1.0225 -0.493,-1.771 -1.48,-2.2456 -0.986,-0.4746 -2.592,-1.0224 -4.82,-1.6434 -1.862,-0.5112 -3.451,-1.0048 -4.767,-1.4794 -1.315,-0.4746 -2.374,-1.013 -3.177,-1.6164 -0.804,-0.602 -1.387,-1.2963 -1.753,-2.0814 -0.366,-0.7852 -0.547,-1.7262 -0.547,-2.8219 0,-1.4604 0.282,-2.7744 0.849,-3.9446 0.566,-1.1675 1.36,-2.1642 2.383,-2.9859 1.022,-0.8217 2.22,-1.4509 3.588,-1.8889 1.369,-0.438 2.855,-0.6577 4.464,-0.6577 2.154,0 4.171,0.3106 6.053,0.9316 1.881,0.6211 3.606,1.6245 5.176,3.013 l -2.959,4.4369 c -1.46,-1.0957 -2.875,-1.8984 -4.246,-2.4096 -1.369,-0.5113 -2.729,-0.7662 -4.08,-0.7662 -1.242,0 -2.283,0.2563 -3.123,0.7662 -0.84,0.5112 -1.261,1.3329 -1.261,2.4652 0,0.5112 0.101,0.9315 0.303,1.2597 0.199,0.3281 0.52,0.621 0.958,0.876 0.438,0.2563 1.013,0.503 1.725,0.739 0.712,0.2386 1.597,0.4841 2.656,0.739 1.972,0.5112 3.66,1.0224 5.066,1.5336 1.407,0.5113 2.557,1.0957 3.452,1.752 0.894,0.6577 1.552,1.4157 1.972,2.2727 0.419,0.8583 0.63,1.8902 0.63,3.0957 0,2.8123 -1.04,5.0308 -3.123,6.6552 -2.076,1.6286 -4.908,2.4408 -8.486,2.4408 z"
         fill="#263238"
         id="path5" /><path
         d="M 266.758,24.6507 V 0 h 7.34 v 24.6507 z m 0,14.6258 v -8.2716 h 7.34 v 8.2716 z"
         fill="#263238"
         id="path6" /><path
         d="m 230.057,225.828 h -48.155 v 3.945 h 48.155 z"
         fill="#37474f"
         id="path7" /><path
         d="m 230.057,230.967 h -48.155 v 3.944 h 48.155 z"
         fill="#37474f"
         id="path8" /><path
         d="m 230.057,236.105 h -48.155 v 3.945 h 48.155 z"
         fill="#37474f"
         id="path9" /><path
         d="m 230.057,241.242 h -48.155 v 3.945 h 48.155 z"
         fill="#37474f"
         id="path10" /><path
         d="m 230.057,246.381 h -48.155 v 3.944 h 48.155 z"
         fill="#37474f"
         id="path11" /><path
         d="m 250.903,348.885 h -91.551 v 3.944 h 91.551 z"
         fill="#37474f"
         id="path12" /><path
         d="m 250.903,354.023 h -91.551 v 3.945 h 91.551 z"
         fill="#37474f"
         id="path13" /><path
         d="m 250.903,359.16 h -91.551 v 3.945 h 91.551 z"
         fill="#37474f"
         id="path14" /><path
         d="m 250.903,364.299 h -91.551 v 3.944 h 91.551 z"
         fill="#37474f"
         id="path15" /><path
         d="m 250.903,369.438 h -91.551 v 3.944 h 91.551 z"
         fill="#37474f"
         id="path16" /><path
         d="m 119.18,193.22 c 0.045,-0.533 -20.0374,-7.26 -20.0374,-7.26 l 1.1864,-69.002 26.631,-5.714 z"
         fill="#2797ff"
         id="path17" /><path
         opacity="0.2"
         d="m 119.18,193.22 c 0.045,-0.533 -20.0374,-7.26 -20.0374,-7.26 l 1.1864,-69.002 26.631,-5.714 z"
         fill="#000000"
         id="path18" /><path
         d="m 303.129,220.306 c 0.141,-0.516 21.313,0.079 21.313,0.079 l 22.632,-65.195 -23.037,-14.53 z"
         fill="#2797ff"
         id="path19" /><path
         opacity="0.2"
         d="m 303.129,220.306 c 0.141,-0.516 21.313,0.079 21.313,0.079 l 22.632,-65.195 -23.037,-14.53 z"
         fill="#000000"
         id="path20" /><path
         d="m 115.314,218.629 c 0,0 7.446,-111.596 13.977,-148.3067 0,0 134.809,10.1957 207.584,38.0117 0,0 -37.519,130.349 -39.461,136.817 0,0 -94.93,-18.7 -182.1,-26.522 z"
         fill="#2797ff"
         id="path21" /><path
         opacity="0.1"
         d="m 235.644,85.2246 c -2.191,13.4366 -4.409,26.8694 -6.705,40.2884 l -6.948,40.244 -0.375,-0.568 45.17,10.73 22.561,5.468 22.536,5.576 -22.655,-5.07 -22.629,-5.178 -45.21,-10.56 -0.457,-0.107 0.082,-0.463 7.194,-40.201 c 2.418,-13.397 4.914,-26.7811 7.436,-40.1594 z"
         fill="#000000"
         id="path22" /><path
         opacity="0.1"
         d="m 230.688,92.8835 c 0.024,1.2312 -0.958,2.4964 -2.368,2.6198 -0.683,0.065 -1.426,-0.1533 -1.982,-0.6374 -0.556,-0.4841 -0.889,-1.2299 -0.893,-1.9824 0.004,-0.7526 0.334,-1.4998 0.891,-1.9839 0.555,-0.4881 1.301,-0.7024 1.984,-0.6386 1.412,0.1234 2.392,1.3912 2.368,2.6225 z m 0,0 c -0.006,-0.6211 -0.281,-1.2313 -0.743,-1.6232 -0.464,-0.3918 -1.072,-0.5519 -1.624,-0.4881 -1.137,0.1315 -1.875,1.1526 -1.859,2.1113 -0.017,0.9586 0.719,1.9851 1.859,2.114 0.552,0.0623 1.161,-0.0977 1.625,-0.4895 0.461,-0.3933 0.736,-1.0035 0.742,-1.6245 z"
         fill="#000000"
         id="path23" /><path
         opacity="0.1"
         d="m 228.32,109.487 c 0.025,1.231 -0.957,2.498 -2.367,2.62 -0.684,0.065 -1.427,-0.153 -1.983,-0.638 -0.556,-0.484 -0.888,-1.229 -0.892,-1.982 0.004,-0.753 0.334,-1.5 0.891,-1.984 0.555,-0.488 1.3,-0.702 1.984,-0.639 1.413,0.125 2.393,1.393 2.367,2.623 z m 0,0 c -0.005,-0.621 -0.28,-1.231 -0.743,-1.623 -0.463,-0.392 -1.071,-0.552 -1.623,-0.488 -1.137,0.131 -1.875,1.152 -1.859,2.111 -0.018,0.959 0.719,1.985 1.859,2.114 0.552,0.062 1.161,-0.098 1.625,-0.491 0.462,-0.39 0.736,-1.002 0.741,-1.623 z"
         fill="#000000"
         id="path24" /><path
         opacity="0.1"
         d="m 225.404,127.032 c 0.025,1.231 -0.957,2.498 -2.367,2.62 -0.684,0.065 -1.427,-0.152 -1.983,-0.638 -0.556,-0.484 -0.888,-1.23 -0.892,-1.982 0.004,-0.753 0.334,-1.5 0.891,-1.984 0.555,-0.488 1.3,-0.702 1.984,-0.639 1.413,0.125 2.393,1.392 2.367,2.623 z m 0,0 c -0.005,-0.621 -0.28,-1.231 -0.743,-1.623 -0.463,-0.392 -1.071,-0.552 -1.623,-0.488 -1.137,0.131 -1.875,1.152 -1.859,2.111 -0.018,0.959 0.719,1.985 1.859,2.114 0.552,0.064 1.161,-0.098 1.625,-0.49 0.461,-0.393 0.736,-1.003 0.741,-1.624 z"
         fill="#000000"
         id="path25" /><path
         opacity="0.1"
         d="m 222.49,144.579 c 0.026,1.231 -0.957,2.496 -2.367,2.62 -0.684,0.063 -1.427,-0.154 -1.983,-0.638 -0.556,-0.484 -0.888,-1.23 -0.892,-1.982 0.003,-0.753 0.335,-1.5 0.891,-1.984 0.555,-0.488 1.3,-0.702 1.984,-0.639 1.413,0.124 2.393,1.392 2.367,2.623 z m 0,0 c -0.005,-0.621 -0.28,-1.231 -0.744,-1.623 -0.464,-0.392 -1.071,-0.552 -1.623,-0.489 -1.138,0.132 -1.876,1.153 -1.859,2.112 -0.018,0.958 0.718,1.985 1.859,2.114 0.552,0.062 1.16,-0.098 1.624,-0.49 0.463,-0.393 0.738,-1.003 0.743,-1.624 z"
         fill="#000000"
         id="path26" /><path
         opacity="0.1"
         d="m 232.424,172.559 c 0.026,1.231 -0.957,2.497 -2.368,2.62 -0.683,0.064 -1.426,-0.153 -1.982,-0.637 -0.556,-0.484 -0.888,-1.23 -0.892,-1.983 0.002,-0.752 0.333,-1.5 0.891,-1.984 0.554,-0.488 1.3,-0.702 1.983,-0.638 1.412,0.123 2.392,1.391 2.368,2.622 z m 0,0 c -0.005,-0.621 -0.281,-1.231 -0.744,-1.623 -0.464,-0.392 -1.072,-0.552 -1.624,-0.488 -1.137,0.131 -1.875,1.153 -1.859,2.111 -0.017,0.959 0.719,1.985 1.859,2.114 0.552,0.064 1.161,-0.097 1.625,-0.491 0.462,-0.392 0.736,-1.002 0.743,-1.623 z"
         fill="#000000"
         id="path27" /><path
         opacity="0.1"
         d="m 248.984,176.598 c 0.026,1.232 -0.957,2.498 -2.367,2.62 -0.684,0.064 -1.427,-0.153 -1.983,-0.637 -0.556,-0.484 -0.888,-1.23 -0.892,-1.983 0.004,-0.752 0.335,-1.499 0.891,-1.984 0.555,-0.488 1.3,-0.702 1.984,-0.638 1.413,0.125 2.393,1.391 2.367,2.622 z m 0,0 c -0.005,-0.621 -0.28,-1.231 -0.743,-1.623 -0.463,-0.392 -1.071,-0.552 -1.623,-0.488 -1.137,0.132 -1.875,1.153 -1.859,2.111 -0.017,0.959 0.719,1.986 1.859,2.114 0.552,0.063 1.161,-0.097 1.625,-0.491 0.461,-0.391 0.736,-1.002 0.741,-1.623 z"
         fill="#000000"
         id="path28" /><path
         opacity="0.1"
         d="m 265.547,180.639 c 0.024,1.232 -0.957,2.497 -2.368,2.62 -0.683,0.064 -1.426,-0.153 -1.982,-0.637 -0.556,-0.484 -0.888,-1.23 -0.892,-1.983 0.004,-0.752 0.333,-1.499 0.891,-1.983 0.554,-0.489 1.3,-0.703 1.983,-0.639 1.412,0.123 2.392,1.391 2.368,2.622 z m 0,0 c -0.005,-0.621 -0.281,-1.231 -0.743,-1.623 -0.464,-0.392 -1.071,-0.552 -1.623,-0.488 -1.138,0.132 -1.876,1.153 -1.859,2.111 -0.018,0.959 0.718,1.986 1.859,2.114 0.552,0.063 1.16,-0.097 1.624,-0.491 0.461,-0.391 0.735,-1.003 0.742,-1.623 z"
         fill="#000000"
         id="path29" /><path
         opacity="0.1"
         d="m 282.108,184.678 c 0.025,1.232 -0.958,2.497 -2.368,2.62 -0.683,0.064 -1.427,-0.152 -1.983,-0.637 -0.555,-0.484 -0.888,-1.23 -0.892,-1.983 0.004,-0.752 0.334,-1.499 0.891,-1.983 0.555,-0.489 1.301,-0.703 1.984,-0.639 1.413,0.123 2.392,1.391 2.368,2.622 z m 0,0 c -0.006,-0.621 -0.281,-1.231 -0.744,-1.623 -0.463,-0.392 -1.071,-0.552 -1.623,-0.488 -1.137,0.132 -1.875,1.153 -1.859,2.111 -0.017,0.959 0.719,1.986 1.859,2.114 0.552,0.063 1.161,-0.097 1.625,-0.489 0.461,-0.393 0.736,-1.004 0.742,-1.625 z"
         fill="#000000"
         id="path30" /><path
         opacity="0.1"
         d="m 298.662,188.9 c -0.069,1.23 -1.146,2.416 -2.562,2.43 -0.686,0.012 -1.41,-0.262 -1.928,-0.788 -0.518,-0.526 -0.792,-1.294 -0.737,-2.045 0.061,-0.75 0.448,-1.469 1.041,-1.909 0.591,-0.444 1.35,-0.601 2.027,-0.484 1.4,0.231 2.278,1.571 2.159,2.796 z m 0,0 c 0.042,-0.62 -0.186,-1.249 -0.617,-1.676 -0.433,-0.428 -1.027,-0.634 -1.581,-0.612 -1.145,0.043 -1.96,1.005 -2.017,1.962 -0.092,0.955 0.565,2.034 1.691,2.251 0.546,0.106 1.165,-0.007 1.657,-0.363 0.493,-0.356 0.814,-0.943 0.867,-1.562 z"
         fill="#000000"
         id="path31" /><path
         opacity="0.1"
         d="m 219.574,162.124 c 0.025,1.231 -0.957,2.498 -2.367,2.62 -0.684,0.065 -1.427,-0.152 -1.983,-0.637 -0.556,-0.485 -0.888,-1.23 -0.892,-1.983 0.004,-0.753 0.335,-1.5 0.891,-1.984 0.555,-0.488 1.3,-0.704 1.984,-0.638 1.413,0.123 2.393,1.391 2.367,2.622 z m 0,0 c -0.005,-0.621 -0.28,-1.231 -0.744,-1.623 -0.464,-0.392 -1.071,-0.552 -1.623,-0.488 -1.138,0.131 -1.876,1.152 -1.859,2.111 -0.018,0.959 0.718,1.985 1.859,2.114 0.552,0.062 1.16,-0.098 1.623,-0.491 0.465,-0.392 0.739,-1.002 0.744,-1.623 z"
         fill="#000000"
         id="path32" /><path
         opacity="0.2"
         d="m 191.685,191.194 c 15.721,-14.135 17.007,-38.339 2.871,-54.06 -14.136,-15.722 -38.339,-17.007 -54.061,-2.871 -15.721,14.135 -17.007,38.339 -2.871,54.06 14.136,15.722 38.34,17.007 54.061,2.871 z"
         fill="#000000"
         id="path33" /><path
         d="m 194.79,173.599 c 6.002,-15.857 -1.987,-33.578 -17.844,-39.58 -15.857,-6.002 -33.577,1.986 -39.58,17.843 -6.002,15.858 1.987,33.578 17.844,39.58 15.857,6.003 33.577,-1.986 39.58,-17.843 z"
         fill="#263238"
         id="path34" /><path
         d="m 164.24,151.442 -7.178,-1.163 -1.162,7.177 7.177,1.163 z"
         fill="#2797ff"
         id="path35" /><path
         d="m 158.224,143.102 -7.177,-1.163 -1.163,7.178 7.177,1.162 z"
         fill="#2797ff"
         id="path36" /><path
         d="m 186.933,147.752 -7.177,-1.162 -1.163,7.177 7.177,1.163 z"
         fill="#2797ff"
         id="path37" /><path
         d="m 153.601,171.647 -7.177,-1.163 -1.163,7.177 7.177,1.163 z"
         fill="#2797ff"
         id="path38" /><path
         d="m 182.308,176.297 -7.177,-1.162 -1.163,7.177 7.177,1.162 z"
         fill="#2797ff"
         id="path39" /><path
         d="m 161.941,165.633 -7.177,-1.162 -1.163,7.177 7.177,1.162 z"
         fill="#2797ff"
         id="path40" /><path
         d="m 170.267,159.7 -7.177,-1.163 -1.163,7.177 7.177,1.163 z"
         fill="#2797ff"
         id="path41" /><path
         d="m 178.595,153.766 -7.177,-1.162 -1.163,7.177 7.177,1.162 z"
         fill="#2797ff"
         id="path42" /><path
         d="m 176.302,167.956 -7.177,-1.163 -1.163,7.177 7.177,1.163 z"
         fill="#2797ff"
         id="path43" /><path
         d="m 298.435,203.014 c 13.4,-16.353 11.005,-40.473 -5.348,-53.873 -16.353,-13.4 -40.473,-11.005 -53.873,5.348 -13.4,16.354 -11.006,40.473 5.348,53.873 16.353,13.4 40.473,11.006 53.873,-5.348 z"
         fill="#2797ff"
         id="path44" /><path
         opacity="0.2"
         d="m 298.435,203.014 c 13.4,-16.353 11.005,-40.473 -5.348,-53.873 -16.353,-13.4 -40.473,-11.005 -53.873,5.348 -13.4,16.354 -11.006,40.473 5.348,53.873 16.353,13.4 40.473,11.006 53.873,-5.348 z"
         fill="#000000"
         id="path45" /><path
         opacity="0.2"
         d="m 306.071,187.626 c -0.176,0.754 -0.377,1.482 -0.603,2.21 L 230.85,173.921 c 0.176,-1.332 0.415,-2.663 0.728,-4.007 4.887,-20.564 25.525,-33.276 46.102,-28.39 20.565,4.887 33.278,25.525 28.391,46.102 z"
         fill="#000000"
         id="path46" /><path
         d="m 280.655,207.102 c 15.645,-6.537 23.029,-24.518 16.493,-40.163 -6.537,-15.645 -24.519,-23.03 -40.164,-16.493 -15.645,6.536 -23.029,24.518 -16.492,40.163 6.536,15.645 24.518,23.029 40.163,16.493 z"
         fill="#263238"
         id="path47" /><path
         d="m 276.552,161.995 -7.073,-1.681 -8.368,35.21 7.074,1.681 z"
         fill="#2797ff"
         id="path48" /><path
         d="m 308.292,186.905 -78.378,-18.627 c 5.143,-21.639 26.861,-35.009 48.5,-29.867 21.641,5.145 35.022,26.855 29.878,48.494 z"
         fill="#2797ff"
         id="path49" /><path
         opacity="0.2"
         d="m 308.292,186.905 -78.378,-18.627 c 5.143,-21.639 26.861,-35.009 48.5,-29.867 21.641,5.145 35.022,26.855 29.878,48.494 z"
         fill="#000000"
         id="path50" /><path
         opacity="0.1"
         d="m 202.219,201.525 c 0.198,-3.061 1.322,-6.164 3.542,-8.619 1.094,-1.236 2.554,-2.207 4.163,-2.799 1.616,-0.594 3.362,-0.698 5.018,-0.557 1.686,0.197 3.406,0.791 4.811,1.854 1.378,1.085 2.434,2.499 3.055,4.022 1.279,3.034 1.419,6.278 0.799,9.286 -0.51,-3.007 -1.287,-5.926 -2.698,-8.322 -1.401,-2.415 -3.617,-3.916 -6.257,-4.15 -2.693,-0.335 -5.321,0.388 -7.438,2.177 -2.116,1.783 -3.733,4.336 -4.995,7.108 z"
         fill="#000000"
         id="path51" /><path
         d="m 125.801,123.444 c 0.317,-4.09 0.777,-8.161 1.165,-12.241 0.435,-4.073 0.882,-8.145 1.377,-12.2094 0.471,-4.068 1.001,-8.1279 1.522,-12.1905 0.51,-4.0625 1.098,-8.1143 1.643,-12.1728 l 0.145,-1.0834 1.099,0.0691 c 8.833,0.556 17.647,1.2692 26.448,2.1751 4.401,0.4515 8.795,0.9627 13.185,1.5268 4.381,0.6292 8.769,1.2096 13.125,2.0069 l -26.466,-1.6381 -26.437,-1.7099 1.243,-1.0143 c -0.601,4.0504 -1.159,8.1062 -1.795,12.1512 -0.627,4.0463 -1.244,8.0939 -1.919,12.1334 -0.651,4.0419 -1.349,8.0789 -2.061,12.1129 -0.758,4.028 -1.446,8.066 -2.274,12.084 z"
         fill="#ffffff"
         id="path52" /><path
         d="m 132.168,154.382 c 0.888,-4.917 3.123,-9.602 6.125,-13.682 0.747,-1.027 1.597,-1.974 2.415,-2.951 0.886,-0.914 1.806,-1.798 2.715,-2.694 0.991,-0.806 1.992,-1.604 3.009,-2.379 1.08,-0.684 2.148,-1.399 3.246,-2.057 1.157,-0.556 2.307,-1.128 3.474,-1.657 l 3.637,-1.258 3.764,-0.777 c 1.264,-0.184 2.548,-0.224 3.816,-0.319 5.104,-0.131 10.128,0.958 14.738,2.825 -4.907,-0.919 -9.797,-1.429 -14.617,-0.97 -4.809,0.448 -9.482,1.885 -13.659,4.239 -4.211,2.299 -7.94,5.469 -11.09,9.152 -3.136,3.702 -5.733,7.895 -7.573,12.528 z"
         fill="#ffffff"
         id="path53" /><path
         d="m 237.768,164.723 c 1.559,-4.748 4.419,-9.079 7.955,-12.706 0.882,-0.913 1.855,-1.734 2.8,-2.589 1.002,-0.782 2.037,-1.531 3.061,-2.294 1.093,-0.662 2.194,-1.314 3.308,-1.94 1.165,-0.529 2.321,-1.091 3.5,-1.59 1.223,-0.39 2.441,-0.798 3.67,-1.16 l 3.776,-0.745 3.836,-0.249 c 1.278,-0.01 2.554,0.13 3.823,0.21 5.074,0.575 9.897,2.347 14.207,4.833 -4.734,-1.588 -9.506,-2.769 -14.344,-2.978 -4.825,-0.22 -9.651,0.559 -14.113,2.313 -4.487,1.695 -8.619,4.32 -12.248,7.533 -3.62,3.234 -6.77,7.027 -9.231,11.362 z"
         fill="#ffffff"
         id="path54" /><path
         d="m 119.597,287.402 c -9.807,0 -31.2747,-2.205 -45.0896,-19.967 -17.6742,-22.724 -11.286,-66.328 -11.0067,-68.173 l 7.6736,1.164 c -0.0637,0.419 -6.1617,42.159 9.4594,62.244 15.2727,19.636 42.9743,16.817 43.2523,16.783 l 0.873,7.711 c -0.302,0.037 -2.202,0.238 -5.162,0.238 z"
         fill="#2797ff"
         id="path55" /><path
         opacity="0.4"
         d="m 119.597,287.402 c -9.807,0 -31.2747,-2.205 -45.0896,-19.967 -17.6742,-22.724 -11.286,-66.328 -11.0067,-68.173 l 7.6736,1.164 c -0.0637,0.419 -6.1617,42.159 9.4594,62.244 15.2727,19.636 42.9743,16.817 43.2523,16.783 l 0.873,7.711 c -0.302,0.037 -2.202,0.238 -5.162,0.238 z"
         fill="#ffffff"
         id="path56" /><path
         d="m 73.4336,205.706 c -1.3994,0 -2.8286,-0.116 -4.2836,-0.352 -12.9443,-2.097 -18.6748,-9.842 -21.2037,-15.971 -2.5344,-6.143 -3.1202,-13.574 -1.7411,-22.084 l 16.4157,2.66 c -0.8543,5.272 -0.6061,9.919 0.6983,13.082 0.9302,2.256 2.7364,4.965 8.4899,5.897 2.628,0.426 5.4688,0.201 8.4439,-4.286 2.2957,-3.464 3.6761,-8.177 4.1588,-11.163 l 16.4162,2.659 c -0.38,2.349 -1.9897,10.566 -6.7154,17.693 -5.1392,7.752 -12.3735,11.865 -20.679,11.865 z"
         fill="#2797ff"
         id="path57" /><path
         d="m 135.814,309.614 c -0.029,-0.354 -13.907,-2.571 -13.907,-2.571 l -6.737,-45.297 16.81,-6.641 z"
         fill="#2797ff"
         id="path58" /><path
         opacity="0.2"
         d="m 135.814,309.614 c -0.029,-0.354 -13.907,-2.571 -13.907,-2.571 l -6.737,-45.297 16.81,-6.641 z"
         fill="#000000"
         id="path59" /><path
         d="m 273.035,309.698 c 0.037,-0.353 13.962,-2.263 13.962,-2.263 l 7.736,-45.137 -16.66,-7.011 z"
         fill="#2797ff"
         id="path60" /><path
         opacity="0.2"
         d="m 273.035,309.698 c 0.037,-0.353 13.962,-2.263 13.962,-2.263 l 7.736,-45.137 -16.66,-7.011 z"
         fill="#000000"
         id="path61" /><path
         d="m 130.039,244.962 c 0,0 112.258,-4.8 150.178,1.52 0,0 -11.135,108.624 -11.737,110.731 0,0 -111.668,-0.301 -129.124,0 0,0 -9.461,-72.23 -9.317,-112.251 z"
         fill="#2797ff"
         id="path62" /><path
         opacity="0.2"
         d="m 164.137,274.728 c 0,0 61.281,-2.421 81.983,0.766 0,0 -6.078,54.774 -6.407,55.836 0,0 -60.96,-0.152 -70.489,0 -0.002,0 -4.19,-37.488 -5.087,-56.602 z"
         fill="#000000"
         id="path63" /><path
         opacity="0.2"
         d="m 172.513,331.307 c -1.404,0 -2.515,0.018 -3.294,0.027 0,0 -4.182,-37.494 -5.086,-56.609 0,0 1.394,-0.054 3.828,-0.135 z"
         fill="#000000"
         id="path64" /><path
         d="m 190.587,288.243 c -3.435,-1.082 -7.094,0.824 -8.176,4.257 -1.084,3.438 0.825,7.094 4.26,8.176 3.432,1.082 7.088,-0.823 8.17,-4.258 1.082,-3.43 -0.822,-7.093 -4.254,-8.175 z m 3.499,7.937 c -0.951,3.018 -4.163,4.691 -7.178,3.741 -3.014,-0.951 -4.689,-4.162 -3.737,-7.18 0.951,-3.014 4.163,-4.689 7.18,-3.737 3.011,0.949 4.685,4.161 3.735,7.176 z m -3.499,-7.937 c -3.435,-1.082 -7.094,0.824 -8.176,4.257 -1.084,3.438 0.825,7.094 4.26,8.176 3.432,1.082 7.088,-0.823 8.17,-4.258 1.082,-3.43 -0.822,-7.093 -4.254,-8.175 z m 3.499,7.937 c -0.951,3.018 -4.163,4.691 -7.178,3.741 -3.014,-0.951 -4.689,-4.162 -3.737,-7.18 0.951,-3.014 4.163,-4.689 7.18,-3.737 3.011,0.949 4.685,4.161 3.735,7.176 z m -3.499,-7.937 c -3.435,-1.082 -7.094,0.824 -8.176,4.257 -1.084,3.438 0.825,7.094 4.26,8.176 3.432,1.082 7.088,-0.823 8.17,-4.258 1.082,-3.43 -0.822,-7.093 -4.254,-8.175 z m 3.499,7.937 c -0.951,3.018 -4.163,4.691 -7.178,3.741 -3.014,-0.951 -4.689,-4.162 -3.737,-7.18 0.951,-3.014 4.163,-4.689 7.18,-3.737 3.011,0.949 4.685,4.161 3.735,7.176 z m -1.326,-14.823 c -7.243,-2.28 -14.954,1.743 -17.237,8.974 -2.279,7.236 1.736,14.953 8.976,17.232 7.231,2.278 14.95,-1.739 17.229,-8.975 2.282,-7.232 -1.736,-14.953 -8.968,-17.231 z m 3.051,15.365 c -1.249,3.964 -5.486,6.171 -9.445,4.922 -3.96,-1.247 -6.167,-5.483 -4.92,-9.447 1.249,-3.963 5.488,-6.167 9.448,-4.919 3.956,1.248 6.164,5.485 4.917,9.444 z m -0.97,-0.302 c 1.082,-3.432 -0.822,-7.094 -4.254,-8.176 -3.435,-1.082 -7.094,0.825 -8.176,4.257 -1.084,3.439 0.825,7.094 4.26,8.177 3.432,1.082 7.088,-0.823 8.17,-4.258 z m -0.755,-0.24 c -0.951,3.018 -4.163,4.691 -7.178,3.741 -3.014,-0.951 -4.689,-4.162 -3.737,-7.18 0.951,-3.014 4.163,-4.689 7.18,-3.737 3.011,0.949 4.685,4.161 3.735,7.176 z m -3.499,-7.937 c -3.435,-1.082 -7.094,0.824 -8.176,4.257 -1.084,3.438 0.825,7.094 4.26,8.176 3.432,1.082 7.088,-0.823 8.17,-4.258 1.082,-3.43 -0.822,-7.093 -4.254,-8.175 z m 3.499,7.937 c -0.951,3.018 -4.163,4.691 -7.178,3.741 -3.014,-0.951 -4.689,-4.162 -3.737,-7.18 0.951,-3.014 4.163,-4.689 7.18,-3.737 3.011,0.949 4.685,4.161 3.735,7.176 z m -3.499,-7.937 c -3.435,-1.082 -7.094,0.824 -8.176,4.257 -1.084,3.438 0.825,7.094 4.26,8.176 3.432,1.082 7.088,-0.823 8.17,-4.258 1.082,-3.43 -0.822,-7.093 -4.254,-8.175 z m 3.499,7.937 c -0.951,3.018 -4.163,4.691 -7.178,3.741 -3.014,-0.951 -4.689,-4.162 -3.737,-7.18 0.951,-3.014 4.163,-4.689 7.18,-3.737 3.011,0.949 4.685,4.161 3.735,7.176 z"
         fill="#2797ff"
         id="path65" /><path
         d="m 187.188,307.812 -5.037,-1.587 -0.846,3.654 4.481,1.412 z"
         fill="#2797ff"
         id="path66" /><path
         d="m 178.136,303.093 -2.441,-4.685 -3.181,1.987 2.169,4.167 z"
         fill="#2797ff"
         id="path67" /><path
         d="m 175.069,293.353 1.587,-5.037 -3.653,-0.845 -1.413,4.48 z"
         fill="#2797ff"
         id="path68" /><path
         d="m 179.789,284.3 4.685,-2.44 -1.987,-3.182 -4.167,2.171 z"
         fill="#2797ff"
         id="path69" /><path
         d="m 189.527,281.234 5.039,1.588 0.845,-3.655 -4.48,-1.411 z"
         fill="#2797ff"
         id="path70" /><path
         d="m 198.582,285.954 2.439,4.685 3.183,-1.986 -2.171,-4.167 z"
         fill="#2797ff"
         id="path71" /><path
         d="m 201.648,295.693 -1.587,5.038 3.654,0.846 1.412,-4.482 z"
         fill="#2797ff"
         id="path72" /><path
         d="m 196.929,304.746 -4.687,2.441 1.987,3.181 4.167,-2.17 z"
         fill="#2797ff"
         id="path73" /><path
         d="m 212.748,307.415 c -2.031,-1.324 -4.75,-0.747 -6.072,1.281 -1.325,2.034 -0.747,4.75 1.284,6.074 2.03,1.322 4.745,0.747 6.068,-1.284 1.322,-2.029 0.75,-4.749 -1.28,-6.071 z m 0.834,5.779 c -1.162,1.786 -3.549,2.29 -5.332,1.128 -1.783,-1.16 -2.287,-3.547 -1.125,-5.331 1.16,-1.784 3.547,-2.288 5.331,-1.126 1.782,1.161 2.287,3.546 1.126,5.329 z m -0.834,-5.779 c -2.031,-1.324 -4.75,-0.747 -6.072,1.281 -1.325,2.034 -0.747,4.75 1.284,6.074 2.03,1.322 4.745,0.747 6.068,-1.284 1.322,-2.029 0.75,-4.749 -1.28,-6.071 z m 0.834,5.779 c -1.162,1.786 -3.549,2.29 -5.332,1.128 -1.783,-1.16 -2.287,-3.547 -1.125,-5.331 1.16,-1.784 3.547,-2.288 5.331,-1.126 1.782,1.161 2.287,3.546 1.126,5.329 z m -0.834,-5.779 c -2.031,-1.324 -4.75,-0.747 -6.072,1.281 -1.325,2.034 -0.747,4.75 1.284,6.074 2.03,1.322 4.745,0.747 6.068,-1.284 1.322,-2.029 0.75,-4.749 -1.28,-6.071 z m 0.834,5.779 c -1.162,1.786 -3.549,2.29 -5.332,1.128 -1.783,-1.16 -2.287,-3.547 -1.125,-5.331 1.16,-1.784 3.547,-2.288 5.331,-1.126 1.782,1.161 2.287,3.546 1.126,5.329 z m 1.82,-9.851 c -4.285,-2.788 -10.013,-1.575 -12.801,2.704 -2.787,4.281 -1.578,10.011 2.704,12.798 4.278,2.785 10.01,1.574 12.796,-2.706 2.788,-4.278 1.579,-10.011 -2.699,-12.796 z m -0.8,10.516 c -1.527,2.344 -4.673,3.01 -7.015,1.484 -2.342,-1.525 -3.009,-4.671 -1.482,-7.016 1.527,-2.344 4.674,-3.007 7.016,-1.482 2.34,1.525 3.006,4.67 1.481,7.014 z m -0.574,-0.373 c 1.322,-2.03 0.75,-4.748 -1.28,-6.07 -2.031,-1.323 -4.75,-0.747 -6.072,1.282 -1.325,2.034 -0.747,4.75 1.284,6.073 2.03,1.322 4.745,0.746 6.068,-1.285 z m -0.446,-0.292 c -1.162,1.786 -3.549,2.29 -5.332,1.128 -1.783,-1.16 -2.287,-3.547 -1.125,-5.331 1.16,-1.784 3.547,-2.288 5.331,-1.126 1.782,1.161 2.287,3.546 1.126,5.329 z m -0.834,-5.779 c -2.031,-1.324 -4.75,-0.747 -6.072,1.281 -1.325,2.034 -0.747,4.75 1.284,6.074 2.03,1.322 4.745,0.747 6.068,-1.284 1.322,-2.029 0.75,-4.749 -1.28,-6.071 z m 0.834,5.779 c -1.162,1.786 -3.549,2.29 -5.332,1.128 -1.783,-1.16 -2.287,-3.547 -1.125,-5.331 1.16,-1.784 3.547,-2.288 5.331,-1.126 1.782,1.161 2.287,3.546 1.126,5.329 z m -0.834,-5.779 c -2.031,-1.324 -4.75,-0.747 -6.072,1.281 -1.325,2.034 -0.747,4.75 1.284,6.074 2.03,1.322 4.745,0.747 6.068,-1.284 1.322,-2.029 0.75,-4.749 -1.28,-6.071 z m 0.834,5.779 c -1.162,1.786 -3.549,2.29 -5.332,1.128 -1.783,-1.16 -2.287,-3.547 -1.125,-5.331 1.16,-1.784 3.547,-2.288 5.331,-1.126 1.782,1.161 2.287,3.546 1.126,5.329 z"
         fill="#dbdbdb"
         id="path74" /><path
         d="m 207.005,319.491 -2.98,-1.94 -1.209,2.217 2.651,1.726 z"
         fill="#dbdbdb"
         id="path75" /><path
         d="m 201.986,314.794 -0.735,-3.48 -2.423,0.714 0.655,3.094 z"
         fill="#dbdbdb"
         id="path76" /><path
         d="m 201.761,307.923 1.94,-2.98 -2.217,-1.209 -1.726,2.651 z"
         fill="#dbdbdb"
         id="path77" /><path
         d="m 206.457,302.905 3.48,-0.735 -0.714,-2.422 -3.094,0.654 z"
         fill="#dbdbdb"
         id="path78" /><path
         d="m 213.328,302.679 2.979,1.94 1.21,-2.217 -2.651,-1.726 z"
         fill="#dbdbdb"
         id="path79" /><path
         d="m 218.346,307.375 0.735,3.48 2.421,-0.714 -0.653,-3.094 z"
         fill="#dbdbdb"
         id="path80" /><path
         d="m 218.573,314.246 -1.94,2.981 2.217,1.208 1.726,-2.651 z"
         fill="#dbdbdb"
         id="path81" /><path
         d="m 213.876,319.266 -3.48,0.735 0.712,2.421 3.096,-0.653 z"
         fill="#dbdbdb"
         id="path82" /><path
         d="m 277.506,344.573 4.315,0.803 12.338,-83.567 -4.916,-0.903 z"
         fill="#2797ff"
         id="path83" /><path
         d="m 239.711,331.33 6.407,-55.836 43.126,-14.588 c 0,0 -11.737,84.57 -11.737,83.667 z"
         fill="#2797ff"
         id="path84" /><path
         opacity="0.4"
         d="m 239.711,331.33 6.407,-55.836 43.126,-14.588 c 0,0 -11.737,84.57 -11.737,83.667 z"
         fill="#ffffff"
         id="path85" /><path
         d="m 135.189,277.755 c -0.702,-4.625 -1.082,-9.289 -1.371,-13.956 -0.133,-2.335 -0.192,-4.673 -0.244,-7.011 -0.046,-2.337 -0.087,-4.678 -0.017,-7.017 l 0.018,-0.614 0.599,-0.033 c 8.567,-0.459 17.128,-1.022 25.701,-1.396 8.57,-0.423 17.14,-0.807 25.717,-1.076 -8.55,0.775 -17.104,1.434 -25.66,2.055 -8.554,0.668 -17.117,1.148 -25.674,1.731 l 0.615,-0.647 -0.035,6.984 0.081,6.986 c 0.012,2.331 0.055,4.661 0.122,6.992 z"
         fill="#ffffff"
         id="path86" /><path
         d="m 252.135,276.313 c 2.671,-1.269 5.384,-2.449 8.13,-3.538 2.738,-1.115 5.5,-2.17 8.295,-3.138 2.799,-0.956 5.607,-1.891 8.463,-2.685 2.85,-0.802 5.728,-1.544 8.667,-2.025 l 0.723,-0.118 -0.129,0.69 c -0.676,3.615 -1.384,7.225 -2.221,10.814 0.313,-3.672 0.755,-7.325 1.229,-10.971 l 0.594,0.572 c -2.849,0.679 -5.675,1.474 -8.493,2.306 -2.815,0.842 -5.622,1.729 -8.421,2.64 z"
         fill="#ffffff"
         id="path87" /><path
         opacity="0.1"
         d="m 153.852,245.189 0.726,13.966 0.621,13.969 1.077,27.945 0.842,27.952 0.336,13.979 0.231,13.984 -0.728,-13.966 -0.621,-13.969 -1.076,-27.945 -0.839,-27.952 -0.338,-13.979 z"
         fill="#000000"
         id="path88" /><path
         opacity="0.1"
         d="m 149.852,253.607 c 0.268,1.203 -0.445,2.638 -1.802,3.036 -0.658,0.198 -1.428,0.133 -2.07,-0.233 -0.641,-0.365 -1.114,-1.029 -1.266,-1.767 -0.145,-0.739 0.031,-1.536 0.481,-2.121 0.448,-0.587 1.136,-0.946 1.819,-1.018 1.407,-0.157 2.619,0.892 2.838,2.103 z m 0,0 c -0.129,-0.607 -0.52,-1.151 -1.05,-1.444 -0.531,-0.293 -1.159,-0.33 -1.688,-0.157 -1.089,0.354 -1.611,1.499 -1.405,2.438 0.172,0.942 1.097,1.803 2.24,1.704 0.553,-0.047 1.119,-0.324 1.494,-0.801 0.377,-0.476 0.525,-1.13 0.409,-1.74 z"
         fill="#000000"
         id="path89" /><path
         opacity="0.1"
         d="m 150.813,270.353 c 0.268,1.203 -0.445,2.638 -1.803,3.036 -0.657,0.198 -1.427,0.133 -2.069,-0.233 -0.641,-0.365 -1.114,-1.029 -1.266,-1.767 -0.145,-0.739 0.031,-1.536 0.481,-2.121 0.448,-0.587 1.136,-0.946 1.818,-1.018 1.408,-0.157 2.62,0.892 2.839,2.103 z m 0,0 c -0.129,-0.607 -0.52,-1.151 -1.05,-1.444 -0.532,-0.293 -1.159,-0.329 -1.688,-0.157 -1.089,0.354 -1.611,1.501 -1.405,2.438 0.172,0.942 1.097,1.803 2.24,1.704 0.553,-0.047 1.119,-0.325 1.496,-0.801 0.375,-0.476 0.525,-1.13 0.407,-1.74 z"
         fill="#000000"
         id="path90" /><path
         opacity="0.1"
         d="m 151.424,288.129 c 0.268,1.202 -0.445,2.637 -1.802,3.036 -0.658,0.198 -1.428,0.133 -2.069,-0.234 -0.642,-0.364 -1.115,-1.029 -1.267,-1.766 -0.145,-0.738 0.031,-1.537 0.481,-2.121 0.448,-0.589 1.137,-0.947 1.819,-1.019 1.407,-0.157 2.62,0.893 2.838,2.104 z m 0,0 c -0.129,-0.608 -0.519,-1.152 -1.05,-1.445 -0.531,-0.292 -1.159,-0.329 -1.688,-0.157 -1.089,0.354 -1.611,1.5 -1.405,2.437 0.173,0.944 1.097,1.803 2.24,1.704 0.554,-0.047 1.119,-0.324 1.495,-0.801 0.377,-0.476 0.525,-1.128 0.408,-1.738 z"
         fill="#000000"
         id="path91" /><path
         opacity="0.1"
         d="m 152.033,305.902 c 0.269,1.203 -0.444,2.637 -1.802,3.036 -0.658,0.198 -1.428,0.133 -2.069,-0.233 -0.641,-0.365 -1.115,-1.029 -1.267,-1.767 -0.145,-0.739 0.032,-1.536 0.482,-2.121 0.447,-0.587 1.135,-0.946 1.818,-1.018 1.408,-0.157 2.62,0.892 2.838,2.103 z m 0,0 c -0.129,-0.607 -0.518,-1.151 -1.049,-1.444 -0.532,-0.293 -1.16,-0.33 -1.688,-0.157 -1.089,0.354 -1.611,1.499 -1.405,2.438 0.172,0.942 1.097,1.803 2.24,1.704 0.553,-0.047 1.119,-0.324 1.494,-0.801 0.377,-0.476 0.525,-1.13 0.408,-1.74 z"
         fill="#000000"
         id="path92" /><path
         opacity="0.1"
         d="m 152.645,323.679 c 0.268,1.203 -0.445,2.638 -1.803,3.036 -0.657,0.198 -1.427,0.133 -2.069,-0.233 -0.641,-0.365 -1.114,-1.029 -1.266,-1.767 -0.145,-0.739 0.031,-1.536 0.481,-2.12 0.448,-0.588 1.136,-0.947 1.818,-1.019 1.408,-0.157 2.62,0.891 2.839,2.103 z m 0,0 c -0.129,-0.607 -0.52,-1.151 -1.05,-1.444 -0.531,-0.293 -1.159,-0.329 -1.688,-0.157 -1.089,0.354 -1.611,1.5 -1.405,2.438 0.172,0.944 1.097,1.804 2.24,1.705 0.553,-0.048 1.119,-0.325 1.496,-0.802 0.375,-0.477 0.523,-1.131 0.407,-1.74 z"
         fill="#000000"
         id="path93" /><path
         opacity="0.1"
         d="m 153.254,341.453 c 0.268,1.203 -0.445,2.637 -1.802,3.036 -0.658,0.198 -1.428,0.133 -2.069,-0.233 -0.642,-0.365 -1.115,-1.03 -1.267,-1.767 -0.145,-0.738 0.031,-1.537 0.481,-2.121 0.448,-0.589 1.135,-0.946 1.819,-1.018 1.407,-0.158 2.618,0.892 2.838,2.103 z m 0,0 c -0.129,-0.608 -0.519,-1.151 -1.05,-1.444 -0.531,-0.293 -1.159,-0.33 -1.688,-0.158 -1.089,0.354 -1.611,1.5 -1.405,2.438 0.173,0.944 1.097,1.804 2.241,1.705 0.553,-0.048 1.118,-0.325 1.494,-0.801 0.377,-0.478 0.525,-1.13 0.408,-1.74 z"
         fill="#000000"
         id="path94" /><path
         d="m 158.742,368.631 -63.5623,19.262 2.2505,7.426 63.5618,-19.261 z"
         fill="#2797ff"
         id="path95" /><path
         opacity="0.4"
         d="m 158.742,368.631 -63.5623,19.262 2.2505,7.426 63.5618,-19.261 z"
         fill="#ffffff"
         id="path96" /><path
         d="m 128.331,375.326 -7.395,2.352 3.493,10.985 7.396,-2.352 z"
         fill="#2797ff"
         id="path97" /><path
         d="M 96.9332,406.2 80.531,335.174 31.0234,346.911 55.4016,416.131 Z"
         fill="#2797ff"
         id="path98" /><path
         d="M 107.918,402.589 96.9334,406.2 80.5312,335.174 96.3314,338.935 Z"
         fill="#2797ff"
         id="path99" /><path
         opacity="0.2"
         d="M 107.918,402.589 96.9334,406.2 80.5312,335.174 96.3314,338.935 Z"
         fill="#000000"
         id="path100" /><path
         d="m 159.895,380.768 c 4.654,0 8.426,-3.772 8.426,-8.426 0,-4.653 -3.772,-8.426 -8.426,-8.426 -4.654,0 -8.426,3.773 -8.426,8.426 0,4.654 3.772,8.426 8.426,8.426 z"
         fill="#2797ff"
         id="path101" /><path
         d="m 246.602,368.428 -2.266,7.422 63.522,19.394 2.266,-7.422 z"
         fill="#2797ff"
         id="path102" /><path
         opacity="0.4"
         d="m 246.602,368.428 -2.266,7.422 63.522,19.394 2.266,-7.422 z"
         fill="#ffffff"
         id="path103" /><path
         d="m 277.057,375.155 -3.518,10.978 7.39,2.368 3.518,-10.977 z"
         fill="#2797ff"
         id="path104" /><path
         d="m 308.375,406.14 16.554,-70.992 49.482,11.844 -24.525,69.168 z"
         fill="#2797ff"
         id="path105" /><path
         d="m 297.398,402.505 10.977,3.635 16.554,-70.992 -15.808,3.729 z"
         fill="#2797ff"
         id="path106" /><path
         opacity="0.2"
         d="m 297.398,402.505 10.977,3.635 16.554,-70.992 -15.808,3.729 z"
         fill="#000000"
         id="path107" /><path
         d="m 237.059,372.131 c -0.01,4.654 3.754,8.435 8.408,8.445 4.654,0.01 8.434,-3.754 8.445,-8.408 0.01,-4.654 -3.754,-8.434 -8.408,-8.445 -4.655,-0.011 -8.436,3.754 -8.445,8.408 z"
         fill="#2797ff"
         id="path108" /><path
         d="m 300.653,284.525 c 0.2,-0.187 20.616,-19.123 44.633,-12.646 24.56,6.627 44.838,43.619 45.038,43.993 l 6.826,-3.69 c -0.886,-1.642 -22.036,-40.305 -49.845,-47.793 -28.282,-7.628 -51.042,13.606 -51.998,14.514 z"
         fill="#2797ff"
         id="path109" /><path
         opacity="0.4"
         d="m 300.653,284.525 c 0.2,-0.187 20.616,-19.123 44.633,-12.646 24.56,6.627 44.838,43.619 45.038,43.993 l 6.826,-3.69 c -0.886,-1.642 -22.036,-40.305 -49.845,-47.793 -28.282,-7.628 -51.042,13.606 -51.998,14.514 z"
         fill="#ffffff"
         id="path110" /><path
         d="m 381.274,353.111 14.707,-7.764 c -1.411,-2.673 -3.15,-7.267 -3.402,-11.415 -0.327,-5.375 1.806,-7.266 4.159,-8.509 5.153,-2.721 8.228,-1.642 10.329,-0.405 2.946,1.739 5.943,5.299 8.437,10.023 l 14.707,-7.764 c -4.025,-7.624 -8.968,-13.202 -14.691,-16.581 -5.71,-3.366 -14.95,-6.101 -26.547,0.02 -9.039,4.772 -13.653,13.375 -12.993,24.225 0.518,8.537 4.183,16.066 5.294,18.17 z"
         fill="#2797ff"
         id="path111" /><path
         d="m 303.754,258.612 c 3.188,-2.202 6.45,-4.277 9.725,-6.333 3.267,-2.068 6.588,-4.045 9.908,-6.022 3.338,-1.948 6.676,-3.894 10.069,-5.75 l 5.09,-2.78 c 1.722,-0.884 3.42,-1.808 5.164,-2.657 -1.587,1.114 -3.218,2.151 -4.826,3.229 l -4.898,3.105 c -3.268,2.068 -6.588,4.045 -9.91,6.019 -3.338,1.948 -6.677,3.894 -10.069,5.749 -3.385,1.871 -6.782,3.719 -10.253,5.44 z"
         fill="#263238"
         id="path112" /><path
         d="m 295.307,290.344 c 4.564,2.601 8.891,5.536 13.16,8.553 4.244,3.051 8.429,6.185 12.372,9.656 -4.567,-2.598 -8.893,-5.533 -13.16,-8.553 -4.242,-3.053 -8.426,-6.186 -12.372,-9.656 z"
         fill="#263238"
         id="path113" /><path
         d="m 302.805,286.441 c 3.523,1.07 6.991,2.28 10.45,3.51 3.466,1.215 6.894,2.53 10.321,3.845 3.416,1.345 6.83,2.693 10.207,4.139 l 5.063,2.172 c 1.669,0.77 3.356,1.497 5.01,2.307 -1.765,-0.522 -3.501,-1.127 -5.252,-1.687 l -5.2,-1.82 c -3.466,-1.216 -6.894,-2.53 -10.319,-3.847 -3.414,-1.346 -6.83,-2.694 -10.205,-4.141 -3.382,-1.433 -6.754,-2.886 -10.075,-4.478 z"
         fill="#263238"
         id="path114" /><path
         d="m 312.812,261.588 c 3.377,-0.877 6.778,-1.608 10.184,-2.317 3.402,-0.724 6.825,-1.343 10.246,-1.962 3.427,-0.588 6.855,-1.172 10.3,-1.653 l 5.169,-0.718 c 1.732,-0.19 3.455,-0.426 5.195,-0.575 -1.685,0.453 -3.386,0.819 -5.08,1.23 l -5.104,1.089 c -3.403,0.723 -6.824,1.342 -10.245,1.959 -3.428,0.585 -6.855,1.171 -10.301,1.651 -3.442,0.497 -6.891,0.971 -10.364,1.296 z"
         fill="#263238"
         id="path115" /><path
         d="m 353.436,124.257 c -3.647,-5.554 -5.697,-11.801 -5.697,-18.405 0,-23.3177 25.605,-42.2231 57.171,-42.2231 31.567,0 57.149,18.9067 57.149,42.2231 0,23.316 -25.582,42.223 -57.149,42.223 -15.306,0 -29.182,-4.434 -39.434,-11.682 l -19.693,5.008 z"
         fill="#ffffff"
         id="path116" /><path
         d="m 353.437,124.256 c -3.441,-5.127 -5.599,-11.181 -5.825,-17.401 -0.171,-6.207 1.358,-12.4863 4.546,-17.8574 3.116,-5.4105 7.557,-9.9721 12.575,-13.6414 5.022,-3.6897 10.678,-6.4763 16.581,-8.4357 5.904,-1.973 12.056,-3.1554 18.261,-3.6517 6.215,-0.4542 12.471,-0.0691 18.612,0.9465 1.526,0.3132 3.074,0.5221 4.581,0.9221 l 4.515,1.2149 4.412,1.5581 c 1.467,0.5288 2.861,1.2435 4.295,1.8564 5.63,2.6781 10.909,6.1874 15.349,10.6174 4.429,4.4125 8,9.8039 9.884,15.8368 1.879,6.011 2.016,12.609 0.187,18.654 -1.779,6.066 -5.268,11.513 -9.637,15.984 -4.379,4.488 -9.616,8.06 -15.217,10.799 -5.6,2.771 -11.635,4.576 -17.754,5.688 -6.131,1.052 -12.386,1.503 -18.594,1.065 -6.206,-0.392 -12.372,-1.526 -18.279,-3.476 -5.9,-1.943 -11.577,-4.656 -16.63,-8.289 l 0.255,0.048 -19.732,4.851 -0.299,0.073 0.127,-0.277 z m 0,0 -7.518,17.202 -0.172,-0.204 19.654,-5.163 0.136,-0.035 0.119,0.083 c 10.14,7 22.37,10.643 34.611,11.298 6.134,0.378 12.304,-0.123 18.33,-1.212 6.021,-1.119 11.952,-2.907 17.435,-5.644 5.487,-2.702 10.598,-6.214 14.843,-10.594 4.238,-4.364 7.587,-9.643 9.281,-15.475 1.745,-5.814 1.578,-12.128 -0.224,-17.8937 -1.791,-5.7942 -5.217,-11.0162 -9.511,-15.3201 -4.303,-4.3189 -9.45,-7.7685 -14.962,-10.41 -1.405,-0.6048 -2.769,-1.3113 -4.208,-1.8333 l -4.327,-1.5432 -4.435,-1.2068 c -1.48,-0.3987 -3.004,-0.6061 -4.504,-0.9194 -6.041,-1.0251 -12.204,-1.3966 -18.331,-1.0034 -6.12,0.4353 -12.198,1.5472 -18.037,3.4415 -5.838,1.8808 -11.439,4.5792 -16.419,8.1713 -4.981,3.5703 -9.369,8.0316 -12.534,13.2969 -3.222,5.2382 -4.829,11.4002 -4.758,17.5532 0.123,6.166 2.17,12.231 5.531,17.411 z"
         fill="#263238"
         id="path117" /><path
         d="m 375.501,112.763 v 3.139 H 362.707 V 97.4766 h 12.561 v 3.1404 h -8.978 v 4.437 h 7.759 v 2.907 h -7.759 v 4.8 z"
         fill="#263238"
         id="path118" /><path
         d="M 378.305,115.904 V 97.4785 h 8.149 c 0.848,0 1.63,0.1777 2.348,0.5329 0.717,0.3553 1.335,0.8218 1.855,1.4008 0.519,0.5804 0.926,1.2378 1.219,1.9728 0.294,0.735 0.44,1.475 0.44,2.219 0,1.193 -0.298,2.279 -0.895,3.257 -0.595,0.977 -1.405,1.682 -2.426,2.114 l 4.205,6.929 h -4.023 l -3.761,-6.177 h -3.53 v 6.177 z m 3.581,-9.317 h 4.49 c 0.328,0 0.636,-0.078 0.92,-0.233 0.286,-0.156 0.532,-0.368 0.741,-0.636 0.207,-0.268 0.371,-0.583 0.492,-0.947 0.122,-0.363 0.183,-0.752 0.183,-1.167 0,-0.433 -0.071,-0.83 -0.207,-1.194 -0.14,-0.363 -0.325,-0.678 -0.559,-0.946 -0.233,-0.269 -0.502,-0.476 -0.804,-0.624 -0.304,-0.146 -0.61,-0.221 -0.922,-0.221 h -4.333 v 5.968 z"
         fill="#263238"
         id="path119" /><path
         d="M 395.561,115.904 V 97.4785 h 8.149 c 0.848,0 1.63,0.1777 2.347,0.5329 0.718,0.3553 1.336,0.8218 1.855,1.4008 0.52,0.5804 0.926,1.2378 1.219,1.9728 0.295,0.735 0.441,1.475 0.441,2.219 0,1.193 -0.298,2.279 -0.895,3.257 -0.595,0.977 -1.405,1.682 -2.426,2.114 l 4.204,6.929 h -4.023 l -3.763,-6.177 h -3.529 v 6.177 z m 3.582,-9.317 h 4.488 c 0.329,0 0.636,-0.078 0.921,-0.233 0.286,-0.156 0.532,-0.368 0.741,-0.636 0.207,-0.268 0.371,-0.583 0.492,-0.947 0.122,-0.363 0.183,-0.752 0.183,-1.167 0,-0.433 -0.071,-0.83 -0.208,-1.194 -0.139,-0.363 -0.324,-0.678 -0.558,-0.946 -0.234,-0.269 -0.502,-0.476 -0.804,-0.624 -0.304,-0.146 -0.611,-0.221 -0.922,-0.221 h -4.333 z"
         fill="#263238"
         id="path120" /><path
         d="m 420.681,116.033 c -1.349,0 -2.572,-0.263 -3.672,-0.791 -1.1,-0.527 -2.042,-1.228 -2.828,-2.102 -0.788,-0.873 -1.397,-1.872 -1.831,-2.997 -0.431,-1.124 -0.647,-2.275 -0.647,-3.451 0,-1.228 0.229,-2.404 0.688,-3.529 0.458,-1.124 1.09,-2.12 1.893,-2.985 0.805,-0.8649 1.761,-1.5524 2.868,-2.0622 1.106,-0.5099 2.309,-0.7662 3.607,-0.7662 1.331,0 2.546,0.2726 3.646,0.8177 1.099,0.5451 2.038,1.2584 2.815,2.1407 0.778,0.882 1.384,1.887 1.817,3.011 0.432,1.125 0.648,2.266 0.648,3.425 0,1.229 -0.225,2.4 -0.674,3.516 -0.45,1.116 -1.074,2.102 -1.868,2.959 -0.796,0.857 -1.748,1.54 -2.855,2.05 -1.108,0.509 -2.309,0.764 -3.607,0.764 z m -5.346,-9.342 c 0,0.796 0.12,1.566 0.363,2.309 0.243,0.745 0.594,1.402 1.051,1.973 0.458,0.571 1.021,1.03 1.687,1.375 0.665,0.346 1.422,0.52 2.271,0.52 0.865,0 1.63,-0.177 2.296,-0.532 0.665,-0.354 1.227,-0.826 1.687,-1.414 0.458,-0.589 0.804,-1.25 1.038,-1.985 0.233,-0.735 0.35,-1.484 0.35,-2.245 0,-0.794 -0.126,-1.564 -0.376,-2.309 -0.25,-0.743 -0.604,-1.402 -1.063,-1.973 -0.459,-0.571 -1.021,-1.025 -1.686,-1.361 -0.666,-0.338 -1.415,-0.507 -2.245,-0.507 -0.866,0 -1.635,0.177 -2.309,0.533 -0.675,0.355 -1.238,0.821 -1.687,1.4 -0.45,0.581 -0.792,1.238 -1.025,1.973 -0.236,0.734 -0.352,1.482 -0.352,2.243 z"
         fill="#263238"
         id="path121" /><path
         d="M 432.438,115.904 V 97.4785 h 8.149 c 0.848,0 1.63,0.1777 2.347,0.5329 0.718,0.3553 1.336,0.8218 1.855,1.4008 0.52,0.5804 0.926,1.2378 1.219,1.9728 0.295,0.735 0.441,1.475 0.441,2.219 0,1.193 -0.298,2.279 -0.895,3.257 -0.595,0.977 -1.405,1.682 -2.426,2.114 l 4.205,6.929 h -4.023 l -3.762,-6.177 h -3.529 v 6.177 z m 3.581,-9.317 h 4.489 c 0.329,0 0.636,-0.078 0.921,-0.233 0.286,-0.156 0.533,-0.368 0.741,-0.636 0.207,-0.268 0.371,-0.583 0.492,-0.947 0.122,-0.363 0.183,-0.752 0.183,-1.167 0,-0.433 -0.071,-0.83 -0.208,-1.194 -0.139,-0.363 -0.324,-0.678 -0.558,-0.946 -0.234,-0.269 -0.502,-0.476 -0.804,-0.624 -0.304,-0.146 -0.611,-0.221 -0.923,-0.221 h -4.332 v 5.968 z"
         fill="#263238"
         id="path122" /></g></g></svg>
