<?xml version="1.0" encoding="UTF-8" standalone="no"?>
<!-- Created with Inkscape (http://www.inkscape.org/) -->

<svg
   width="267.10016mm"
   height="33.480484mm"
   viewBox="0 0 267.10016 33.480484"
   version="1.1"
   id="svg1"
   xml:space="preserve"
   xmlns="http://www.w3.org/2000/svg"
   xmlns:svg="http://www.w3.org/2000/svg"><defs
     id="defs1" /><g
     id="layer1"
     transform="translate(568.60883,-440.67283)"><g
       id="g30"
       transform="translate(-454.881,-182.82403)"><path
         d="m -58.440427,654.46253 c 3.2738,0 5.92401,-0.77948 7.91168,-2.37741 1.987662,-1.59792 3.00098,-3.70251 3.00098,-6.31375 0,-4.59891 -3.31277,-7.36605 -9.89934,-8.34039 -4.05328,-0.62359 -5.61223,-1.51998 -5.61223,-3.4297 0,-2.06561 1.98766,-3.35175 5.06659,-3.35175 2.5333,0 4.87173,0.70153 7.01529,2.06561 l 2.29945,-4.01431 c -2.76714,-1.79278 -5.96299,-2.68919 -9.50961,-2.68919 -3.00098,0 -5.41736,0.7405 -7.32707,2.26048 -1.90972,1.51998 -2.88406,3.50764 -2.88406,5.96299 0,4.40404 3.07893,6.82042 9.78242,7.71682 4.09225,0.5846 5.69018,1.79279 5.69018,3.8584 0,2.3774 -2.26048,3.85841 -5.57326,3.85841 -2.92303,0 -5.69017,-0.93537 -8.34039,-2.84509 l -2.3774,4.20917 c 3.00098,2.29946 6.58657,3.4297 10.75677,3.42971 z m 17.769095,-22.25404 c 1.870742,0 3.195852,-1.24717 3.195852,-2.96201 0,-1.75382 -1.32511,-3.03996 -3.195852,-3.03996 -1.831769,0 -3.156878,1.28614 -3.156878,3.03996 0,1.71484 1.325109,2.96201 3.156878,2.96201 z m 2.611245,21.66943 v -19.25306 h -5.183516 v 19.25306 z m 29.07149,-19.6428 c -3.351747,0 -5.651201,1.28614 -6.859389,3.89738 -0.896397,-2.61124 -3.156878,-3.89738 -6.079913,-3.89738 -2.845087,0 -5.066594,1.44203 -6.001965,3.93636 h -0.116921 c 0.272816,-1.28614 0.389738,-2.49433 0.389738,-3.54662 h -4.71583 v 19.25306 h 5.183515 v -10.87369 c 0,-2.5333 1.597926,-4.24815 3.975328,-4.24815 2.377402,0 3.780459,1.67588 3.780459,4.20917 v 10.91267 h 5.144541 v -10.87369 c 0,-2.49432 1.597926,-4.20917 4.092249,-4.20917 2.338428,0 3.663538,1.59792 3.663538,4.13122 v 10.95164 h 5.183515 V 642.3027 c 0,-4.87172 -2.845087,-8.06758 -7.638865,-8.06758 z m 20.731122,20.03254 c 2.845088,0 5.22249,-1.36409 6.35273,-3.70251 h 0.116921 c -0.07795,0.89639 -0.116921,1.98766 -0.116921,3.31277 h 4.676856 v -19.25306 h -5.183515 v 10.17216 c 0,2.96201 -1.831769,5.0666 -4.481988,5.0666 -2.611244,0 -4.170196,-1.83177 -4.170196,-4.79378 V 634.62486 H 3.752896 v 10.5619 c 0,5.6512 3.000983,9.0809 7.989629,9.0809 z m 22.796763,0.0779 c 1.519978,0 2.845088,-0.23384 3.975328,-0.7405 l -0.935371,-3.93635 c -0.50666,0.19487 -1.091267,0.27282 -1.675874,0.27282 -1.597926,0 -2.26048,-0.85743 -2.26048,-2.88407 v -20.46124 h -5.183516 v 21.00688 c 0,4.48198 2.026638,6.74246 6.079913,6.74246 z m 14.495323,-20.14941 c -2.455349,0 -4.910699,0.50666 -7.405022,1.481 l 1.091266,3.81944 c 2.065612,-0.77948 3.975328,-1.16922 5.768123,-1.16922 3.312773,0 4.988646,1.24716 4.988646,3.74149 v 0.70153 c -1.519978,-0.77948 -3.39072,-1.16922 -5.534279,-1.16922 -2.221507,0 -4.053276,0.54563 -5.495306,1.67588 -1.481005,1.13024 -2.221507,2.68919 -2.221507,4.71583 0,1.98766 0.701529,3.50764 2.065612,4.55993 1.364083,1.09127 3.039956,1.6369 5.066594,1.6369 2.845087,0 5.495306,-1.40306 6.703493,-3.62456 h 0.116922 c -0.116922,1.16921 -0.155895,2.26048 -0.155895,3.31277 h 4.637882 v -12.08188 c 0,-5.06659 -3.195852,-7.59989 -9.626529,-7.59989 z m -0.272817,15.90131 c -1.870742,0 -3.39072,-0.85742 -3.39072,-2.45535 0,-1.67587 1.481004,-2.5333 3.624563,-2.5333 1.714848,0 3.234826,0.38974 4.598909,1.20819 -0.311791,2.3774 -2.338428,3.78046 -4.832752,3.78046 z"
         id="text142-5-2"
         style="-inkscape-font-specification:'NexaText, Ultra-Bold';fill:#000000;fill-opacity:1;stroke-linecap:round;stroke-linejoin:round"
         aria-label="Simula" /><path
         d="m 80.344206,639.51376 c 2.533298,-1.00463 4.014303,-3.29518 4.014303,-6.06795 0,-4.54091 -3.195853,-7.43423 -8.145529,-7.43423 H 64.48186 v 28.12952 h 11.73112 c 5.768126,0 9.041928,-2.77276 9.041928,-7.7557 0,-3.21481 -1.909719,-5.74647 -4.910702,-6.75109 z m -4.092252,-10.68923 c 3.117906,0 5.066597,1.8887 5.066597,4.82221 0,2.93351 -1.948691,4.70165 -5.339413,4.70165 h -8.496294 v -9.52386 z m -8.76911,22.46344 v -10.16681 h 8.730136 c 3.741487,0 6.001969,1.8887 6.001969,5.06331 0,3.17461 -2.143561,5.1035 -5.729152,5.1035 z m 29.967949,-17.31975 c -2.299455,0 -4.598911,0.5224 -6.898366,1.6074 l 0.779476,2.41111 c 2.104586,-0.92426 4.092252,-1.40648 5.962995,-1.40648 3.936352,0 6.391702,1.64758 6.391702,5.02313 v 1.68777 c -1.90971,-1.085 -4.170194,-1.64759 -6.78144,-1.64759 -2.221508,0 -4.092252,0.56259 -5.573257,1.68777 -1.481005,1.16538 -2.221508,2.73258 -2.221508,4.78202 0,2.00925 0.701529,3.57647 2.14356,4.66147 1.403058,1.12518 3.15688,1.68777 5.30044,1.68777 3.234827,0 6.196835,-1.64757 7.444005,-4.25962 h 0.078 c -0.039,0.8439 -0.078,2.16999 -0.078,3.93813 h 2.57227 v -12.53772 c 0,-5.26424 -3.50765,-7.63516 -9.119877,-7.63516 z m -0.428711,17.96271 c -2.806116,0 -5.027623,-1.48685 -5.027623,-3.89793 0,-2.4513 2.221507,-3.93815 5.378387,-3.93815 2.377402,0 4.481994,0.60279 6.391704,1.76815 -0.11692,1.84851 -0.81845,3.33535 -2.10458,4.42035 -1.28614,1.085 -2.845093,1.64759 -4.637888,1.64758 z m 18.821388,2.21017 v -10.7294 c 0,-1.92888 0.62358,-3.53628 1.83177,-4.8222 1.20819,-1.28593 2.76714,-1.92888 4.67686,-1.92888 3.74149,0 5.72915,2.37091 5.72915,6.4296 v 11.05088 h 2.88407 v -11.29198 c 0,-5.62592 -2.92304,-8.8809 -8.10656,-8.8809 -3.31277,0 -6.04094,1.56721 -7.17118,4.25961 h -0.11692 c 0.078,-1.44666 0.11692,-2.77277 0.11692,-3.93814 h -2.72817 v 19.85141 z m 36.32064,-19.85141 h -3.62456 l -5.30044,5.58573 c -1.36408,1.40648 -2.33843,2.49147 -3.00098,3.33536 l -0.078,-0.0402 c 0.039,-1.12518 0.078,-3.37554 0.078,-6.75108 v -10.40793 h -2.88406 v 28.12952 h 2.88406 v -3.53629 c 0,-2.77276 -0.039,-4.70165 -0.11692,-5.82682 l 0.11692,-0.0402 c 0.77947,0.92425 1.90972,2.16999 3.39072,3.65684 l 5.88505,5.74645 h 3.8584 l -10.44498,-10.16678 z"
         id="text143-8-4"
         style="-inkscape-font-specification:'NexaText, Light';fill:#000000;fill-opacity:1;stroke-width:1.01542;stroke-linecap:round;stroke-linejoin:round"
         aria-label="Bank" /><g
         id="g29"><path
           style="fill:#000000;fill-opacity:1;stroke:#000000;stroke-width:0.0354569;stroke-linecap:round;stroke-linejoin:round;stroke-dasharray:none;stroke-opacity:1"
           d="m -106.08038,654.35867 5.99332,-10.19583 -5.3024,-9.17739 c -0.003,-2.36877 -4.99248,-1.50158 -6.05597,-0.4308 -0.13671,0.13767 -1.37477,2.55563 -1.44543,2.70616 -0.74198,1.58059 -1.35908,3.15329 -0.0794,5.31941 z"
           id="path327-9-7-1" /><path
           style="fill:#000000;fill-opacity:1;stroke:#000000;stroke-width:0.0354569;stroke-linecap:round;stroke-linejoin:round;stroke-dasharray:none;stroke-opacity:1"
           d="m -86.238552,626.1155 -5.993313,10.19583 5.302394,9.17739 c 0.0027,2.36877 4.99248,1.50158 6.055973,0.4308 0.136711,-0.13767 1.374768,-2.55563 1.445431,-2.70616 0.741975,-1.58059 1.359083,-3.15329 0.07944,-5.31941 z"
           id="path328-9-3-5" /><path
           style="fill:#000000;fill-opacity:1;stroke:#000000;stroke-width:0.0354782;stroke-linecap:round;stroke-linejoin:round;stroke-dasharray:none;stroke-opacity:1"
           d="m -86.238552,626.1155 -5.993313,10.19583 5.302394,9.17739 c 3.578339,-0.11468 6.881068,-0.95389 7.501404,-2.27536 0.742001,-1.58059 1.359083,-3.15329 0.07944,-5.31941 z"
           id="path330-5-9-6" /><path
           style="fill:#000000;fill-opacity:1;stroke:#000000;stroke-width:0.0354569;stroke-linecap:round;stroke-linejoin:round;stroke-dasharray:none;stroke-opacity:1"
           d="m -106.08038,654.35867 5.99332,-10.19583 -5.3024,-9.17739 c -3.57834,0.11468 -6.88107,0.95389 -7.5014,2.27536 -0.742,1.58059 -1.35908,3.15329 -0.0794,5.31941 z"
           id="path317-9-9-5" /><path
           d="m -90.938697,656.9596 c 1.53538,-0.0701 2.907561,0.0936 4.149539,-0.84169 0.91043,-0.8431 2.104792,-2.48497 3.107599,-4.42715 -1.54325,1.21618 -3.556626,1.11159 -6.993292,1.10039 l -10.424999,0.0476 -2.40289,4.10942 z"
           style="fill:#000000;fill-opacity:1;stroke:#000000;stroke-width:0.0354569;stroke-linecap:round;stroke-linejoin:round;stroke-opacity:1"
           id="path331-4-9-1" /><path
           d="m -105.12556,630.81698 c -1.53535,0.0701 -3.2661,-0.0203 -4.30039,1.11172 -1.51382,1.64496 -2.60498,3.40583 -3.46491,5.33211 0.80237,-1.21955 3.92312,-2.16049 7.50146,-2.27536 l 10.424992,-0.0477 2.402863,-4.10939 z"
           style="fill:#000000;fill-opacity:1;stroke:#000000;stroke-width:0.0354782;stroke-linecap:round;stroke-linejoin:round;stroke-dasharray:none;stroke-opacity:1"
           id="path318-6-9-1" /><path
           d="m -101.38023,623.51457 c -1.53538,0.0701 -2.90756,-0.0936 -4.14954,0.84169 -0.91043,0.8431 -2.10479,2.48497 -3.1076,4.42715 1.54325,-1.21619 3.55663,-1.11159 6.99329,-1.10039 l 10.424999,-0.0476 2.402889,-4.10942 z"
           style="fill:#000000;fill-opacity:1;stroke:#000000;stroke-width:0.0354569;stroke-linecap:round;stroke-linejoin:round;stroke-opacity:1"
           id="path319-8-7-2" /><path
           d="m -87.19337,649.65719 c 1.535353,-0.0701 3.266104,0.0203 4.300387,-1.11172 1.513827,-1.64496 2.604982,-3.40583 3.464916,-5.33211 -0.802368,1.21954 -3.923118,2.16049 -7.501457,2.27536 l -10.424996,0.0477 -2.402863,4.1094 z"
           style="fill:#000000;fill-opacity:1;stroke:#000000;stroke-width:0.0354782;stroke-linecap:round;stroke-linejoin:round;stroke-dasharray:none;stroke-opacity:1"
           id="path329-2-6-7" /></g></g></g></svg>
