<?xml version="1.0" encoding="UTF-8" standalone="no"?>
<!-- Created with Inkscape (http://www.inkscape.org/) -->

<svg
   width="31.548267mm"
   height="4.0328126mm"
   viewBox="0 0 31.548267 4.0328126"
   version="1.1"
   id="svg1"
   xml:space="preserve"
   xmlns:inkscape="http://www.inkscape.org/namespaces/inkscape"
   xmlns:sodipodi="http://sodipodi.sourceforge.net/DTD/sodipodi-0.dtd"
   xmlns="http://www.w3.org/2000/svg"
   xmlns:svg="http://www.w3.org/2000/svg"><sodipodi:namedview
     id="namedview1"
     pagecolor="#ffffff"
     bordercolor="#000000"
     borderopacity="0.25"
     inkscape:showpageshadow="2"
     inkscape:pageopacity="0.0"
     inkscape:pagecheckerboard="0"
     inkscape:deskcolor="#d1d1d1"
     inkscape:document-units="mm" /><defs
     id="defs1" /><g
     inkscape:label="Capa 1"
     inkscape:groupmode="layer"
     id="layer1"
     transform="translate(-158.97705,-217.64608)"><g
       id="g1"
       transform="matrix(0.14174569,0,0,0.14174569,147.83177,184.07787)"
       inkscape:export-filename="imagotipo_simulabank_sidebar.svg"
       inkscape:export-xdpi="96"
       inkscape:export-ydpi="96"><path
         d="m 89.38553,265.27095 c 3.2738,0 5.92401,-0.77948 7.91168,-2.37741 1.987662,-1.59792 3.00098,-3.70251 3.00098,-6.31375 0,-4.59891 -3.31277,-7.36605 -9.89934,-8.34039 -4.05328,-0.62359 -5.61223,-1.51998 -5.61223,-3.4297 0,-2.06561 1.98766,-3.35175 5.06659,-3.35175 2.5333,0 4.87173,0.70153 7.01529,2.06562 l 2.29945,-4.01431 c -2.76714,-1.79279 -5.96299,-2.68919 -9.50961,-2.68919 -3.00098,0 -5.41736,0.7405 -7.32707,2.26048 -1.90972,1.51998 -2.88406,3.50764 -2.88406,5.96299 0,4.40404 3.07893,6.82042 9.78242,7.71682 4.09225,0.5846 5.69018,1.79279 5.69018,3.8584 0,2.3774 -2.26048,3.85841 -5.57326,3.85841 -2.92303,0 -5.69017,-0.93537 -8.34039,-2.84509 l -2.3774,4.20917 c 3.00098,2.29946 6.58657,3.4297 10.75677,3.4297 z m 17.7691,-22.25404 c 1.87074,0 3.19585,-1.24717 3.19585,-2.96201 0,-1.75382 -1.32511,-3.03996 -3.19585,-3.03996 -1.83177,0 -3.15688,1.28614 -3.15688,3.03996 0,1.71484 1.32511,2.96201 3.15688,2.96201 z m 2.61124,21.66943 v -19.25306 h -5.18352 v 19.25306 z m 29.07149,-19.6428 c -3.35175,0 -5.6512,1.28614 -6.85939,3.89738 -0.8964,-2.61124 -3.15688,-3.89738 -6.07991,-3.89738 -2.84509,0 -5.0666,1.44203 -6.00197,3.93636 h -0.11692 c 0.27282,-1.28614 0.38974,-2.49433 0.38974,-3.54662 h -4.71583 v 19.25306 h 5.18351 v -10.87369 c 0,-2.5333 1.59793,-4.24815 3.97533,-4.24815 2.3774,0 3.78046,1.67588 3.78046,4.20917 v 10.91267 h 5.14454 v -10.87369 c 0,-2.49432 1.59793,-4.20917 4.09225,-4.20917 2.33843,0 3.66354,1.59792 3.66354,4.13122 v 10.95164 h 5.18351 v -11.57522 c 0,-4.87172 -2.84508,-8.06758 -7.63886,-8.06758 z m 20.73112,20.03254 c 2.84509,0 5.22249,-1.36409 6.35273,-3.70251 h 0.11692 c -0.0779,0.89639 -0.11692,1.98766 -0.11692,3.31277 h 4.67686 v -19.25306 h -5.18352 v 10.17216 c 0,2.96201 -1.83177,5.0666 -4.48199,5.0666 -2.61124,0 -4.17019,-1.83177 -4.17019,-4.79378 v -10.44498 h -5.18352 v 10.5619 c 0,5.6512 3.00099,9.0809 7.98963,9.0809 z m 22.79677,0.0779 c 1.51997,0 2.84508,-0.23384 3.97532,-0.7405 l -0.93537,-3.93635 c -0.50666,0.19487 -1.09126,0.27282 -1.67587,0.27282 -1.59793,0 -2.26048,-0.85743 -2.26048,-2.88407 v -20.46124 h -5.18352 v 21.00688 c 0,4.48198 2.02664,6.74246 6.07992,6.74246 z m 14.49532,-20.14941 c -2.45535,0 -4.9107,0.50666 -7.40502,1.481 l 1.09126,3.81944 c 2.06561,-0.77948 3.97533,-1.16922 5.76812,-1.16922 3.31278,0 4.98865,1.24716 4.98865,3.74149 v 0.70153 c -1.51998,-0.77948 -3.39072,-1.16922 -5.53428,-1.16922 -2.2215,0 -4.05327,0.54563 -5.4953,1.67588 -1.48101,1.13024 -2.22151,2.68919 -2.22151,4.71583 0,1.98766 0.70153,3.50764 2.06561,4.55993 1.36408,1.09127 3.03996,1.6369 5.06659,1.6369 2.84509,0 5.49531,-1.40306 6.7035,-3.62456 h 0.11692 c -0.11692,1.16921 -0.1559,2.26048 -0.1559,3.31277 h 4.63789 v -12.08188 c 0,-5.06659 -3.19585,-7.59989 -9.62653,-7.59989 z m -0.27282,15.90131 c -1.87074,0 -3.39072,-0.85742 -3.39072,-2.45535 0,-1.67587 1.48101,-2.5333 3.62456,-2.5333 1.71485,0 3.23483,0.38974 4.59891,1.20819 -0.31179,2.3774 -2.33843,3.78046 -4.83275,3.78046 z"
         id="text142-5"
         style="-inkscape-font-specification:'NexaText, Ultra-Bold';fill:#07457e;stroke-linecap:round;stroke-linejoin:round"
         aria-label="Simula" /><path
         d="m 228.17016,250.32219 c 2.5333,-1.00463 4.01431,-3.29518 4.01431,-6.06795 0,-4.54091 -3.19586,-7.43423 -8.14553,-7.43423 h -11.73112 v 28.12952 h 11.73112 c 5.76812,0 9.04193,-2.77276 9.04193,-7.7557 0,-3.21481 -1.90972,-5.74647 -4.91071,-6.75109 z m -4.09225,-10.68923 c 3.11791,0 5.0666,1.8887 5.0666,4.82221 0,2.93351 -1.94869,4.70165 -5.33942,4.70165 h -8.49629 v -9.52386 z m -8.76911,22.46344 v -10.16681 h 8.73014 c 3.74148,0 6.00197,1.8887 6.00197,5.06331 0,3.17461 -2.14357,5.1035 -5.72916,5.1035 z m 29.96795,-17.31975 c -2.29946,0 -4.59891,0.5224 -6.89837,1.6074 l 0.77948,2.41111 c 2.10459,-0.92426 4.09225,-1.40648 5.96299,-1.40648 3.93636,0 6.39171,1.64758 6.39171,5.02313 v 1.68777 c -1.90972,-1.085 -4.1702,-1.64759 -6.78144,-1.64759 -2.22151,0 -4.09226,0.56259 -5.57326,1.68777 -1.48101,1.16537 -2.22151,2.73258 -2.22151,4.78202 0,2.00925 0.70153,3.57647 2.14356,4.66147 1.40306,1.12518 3.15688,1.68777 5.30044,1.68777 3.23483,0 6.19684,-1.64758 7.444,-4.25962 h 0.0779 c -0.039,0.8439 -0.0779,2.16999 -0.0779,3.93813 h 2.57227 v -12.53772 c 0,-5.26424 -3.50764,-7.63516 -9.11987,-7.63516 z m -0.42871,17.96271 c -2.80612,0 -5.02762,-1.48685 -5.02762,-3.89794 0,-2.4513 2.2215,-3.93815 5.37838,-3.93815 2.37741,0 4.48199,0.60279 6.39171,1.76815 -0.11692,1.84851 -0.81845,3.33535 -2.10459,4.42035 -1.28613,1.085 -2.84509,1.64759 -4.63788,1.64759 z m 18.82139,2.21017 v -10.7294 c 0,-1.92888 0.62358,-3.53628 1.83177,-4.8222 1.20819,-1.28593 2.76714,-1.92888 4.67686,-1.92888 3.74149,0 5.72915,2.37091 5.72915,6.4296 v 11.05088 h 2.88406 v -11.29198 c 0,-5.62592 -2.92303,-8.8809 -8.10655,-8.8809 -3.31278,0 -6.04094,1.56721 -7.17118,4.25961 h -0.11693 c 0.0779,-1.44666 0.11693,-2.77277 0.11693,-3.93814 h -2.72817 v 19.85141 z m 36.32064,-19.85141 h -3.62456 l -5.30044,5.58573 c -1.36408,1.40648 -2.33843,2.49147 -3.00098,3.33536 l -0.078,-0.0402 c 0.039,-1.12518 0.078,-3.37554 0.078,-6.75108 V 236.82 h -2.88407 v 28.12952 h 2.88407 v -3.53629 c 0,-2.77276 -0.039,-4.70165 -0.11693,-5.82682 l 0.11693,-0.0402 c 0.77947,0.92425 1.90971,2.16999 3.39072,3.65684 l 5.88505,5.74645 h 3.8584 l -10.44498,-10.16678 z"
         id="text143-8"
         style="-inkscape-font-specification:'NexaText, Light';fill:#00c859;stroke-width:1.01542;stroke-linecap:round;stroke-linejoin:round"
         aria-label="Bank" /></g></g></svg>
