<?xml version="1.0" encoding="UTF-8" standalone="no"?>
<!-- Created with Inkscape (http://www.inkscape.org/) -->

<svg
   width="267.10016mm"
   height="33.480515mm"
   viewBox="0 0 267.10016 33.480515"
   version="1.1"
   id="svg1"
   xml:space="preserve"
   xmlns="http://www.w3.org/2000/svg"
   xmlns:svg="http://www.w3.org/2000/svg"><defs
     id="defs1" /><g
     id="layer1"
     transform="translate(164.28132,-669.24206)"><g
       id="g1"><path
         d="m -108.99389,700.20771 c 3.2738,0 5.92401,-0.77948 7.91168,-2.37741 1.987662,-1.59792 3.00098,-3.70251 3.00098,-6.31375 0,-4.59891 -3.31277,-7.36605 -9.89934,-8.34039 -4.05328,-0.62359 -5.61223,-1.51998 -5.61223,-3.4297 0,-2.06561 1.98766,-3.35175 5.06659,-3.35175 2.5333,0 4.87173,0.70153 7.01529,2.06562 l 2.29945,-4.01431 c -2.76714,-1.79279 -5.96299,-2.68919 -9.50961,-2.68919 -3.00098,0 -5.41736,0.7405 -7.32707,2.26048 -1.90972,1.51998 -2.88406,3.50764 -2.88406,5.96299 0,4.40404 3.07893,6.82042 9.78242,7.71682 4.09225,0.5846 5.69018,1.79279 5.69018,3.8584 0,2.3774 -2.26048,3.85841 -5.57326,3.85841 -2.92303,0 -5.69017,-0.93537 -8.34039,-2.84509 l -2.3774,4.20917 c 3.00098,2.29946 6.58657,3.4297 10.75677,3.4297 z m 17.769095,-22.25404 c 1.870742,0 3.195852,-1.24717 3.195852,-2.96201 0,-1.75382 -1.32511,-3.03996 -3.195852,-3.03996 -1.831769,0 -3.156878,1.28614 -3.156878,3.03996 0,1.71484 1.325109,2.96201 3.156878,2.96201 z m 2.611245,21.66943 v -19.25306 h -5.183516 v 19.25306 z m 29.07149,-19.6428 c -3.351747,0 -5.651201,1.28614 -6.859389,3.89738 -0.896397,-2.61124 -3.156878,-3.89738 -6.079913,-3.89738 -2.845087,0 -5.066594,1.44203 -6.001965,3.93636 h -0.116921 c 0.272816,-1.28614 0.389738,-2.49433 0.389738,-3.54662 h -4.71583 v 19.25306 h 5.183515 v -10.87369 c 0,-2.5333 1.597926,-4.24815 3.975328,-4.24815 2.377402,0 3.780459,1.67588 3.780459,4.20917 v 10.91267 h 5.144541 v -10.87369 c 0,-2.49432 1.597926,-4.20917 4.092249,-4.20917 2.338428,0 3.663538,1.59792 3.663538,4.13122 v 10.95164 h 5.183515 v -11.57522 c 0,-4.87172 -2.845087,-8.06758 -7.638865,-8.06758 z m 20.731122,20.03254 c 2.845088,0 5.22249,-1.36409 6.35273,-3.70251 h 0.116921 c -0.07795,0.89639 -0.116921,1.98766 -0.116921,3.31277 h 4.676856 v -19.25306 h -5.183515 v 10.17216 c 0,2.96201 -1.831769,5.0666 -4.481988,5.0666 -2.611244,0 -4.170196,-1.83177 -4.170196,-4.79378 v -10.44498 h -5.183516 v 10.5619 c 0,5.6512 3.000983,9.0809 7.989629,9.0809 z m 22.796763,0.0779 c 1.519978,0 2.845088,-0.23384 3.975328,-0.7405 l -0.935371,-3.93635 c -0.50666,0.19487 -1.091267,0.27282 -1.675874,0.27282 -1.597926,0 -2.26048,-0.85743 -2.26048,-2.88407 V 672.3414 h -5.183516 v 21.00688 c 0,4.48198 2.026638,6.74246 6.079913,6.74246 z m 14.4953231,-20.14941 c -2.4553494,0 -4.9106988,0.50666 -7.4050221,1.481 l 1.0912664,3.81944 c 2.0656115,-0.77948 3.9753277,-1.16922 5.7681225,-1.16922 3.3127731,0 4.9886465,1.24716 4.9886465,3.74149 v 0.70153 c -1.5199782,-0.77948 -3.39072064,-1.16922 -5.5342797,-1.16922 -2.2215066,0 -4.0532752,0.54563 -5.4953059,1.67588 -1.4810044,1.13024 -2.2215068,2.68919 -2.2215068,4.71583 0,1.98766 0.7015286,3.50764 2.0656116,4.55993 1.3640831,1.09127 3.0399565,1.6369 5.0665941,1.6369 2.84508746,0 5.4953059,-1.40306 6.7034937,-3.62456 h 0.1169214 c -0.1169214,1.16921 -0.1558952,2.26048 -0.1558952,3.31277 h 4.6378823 v -12.08188 c 0,-5.06659 -3.1958516,-7.59989 -9.6265288,-7.59989 z m -0.2728166,15.90131 c -1.8707424,0 -3.3907206,-0.85742 -3.3907206,-2.45535 0,-1.67587 1.4810044,-2.5333 3.6245634,-2.5333 1.71484727,0 3.2348255,0.38974 4.5989085,1.20819 -0.3117904,2.3774 -2.33842802,3.78046 -4.8327513,3.78046 z"
         id="text142-5"
         style="-inkscape-font-specification:'NexaText, Ultra-Bold';fill:#07457e;stroke-linecap:round;stroke-linejoin:round"
         aria-label="Simula" /><path
         d="m 29.790743,685.25895 c 2.533298,-1.00463 4.014303,-3.29518 4.014303,-6.06795 0,-4.54091 -3.195853,-7.43423 -8.145529,-7.43423 h -11.73112 v 28.12952 h 11.73112 c 5.768126,0 9.041928,-2.77276 9.041928,-7.7557 0,-3.21481 -1.909719,-5.74647 -4.910702,-6.75109 z m -4.092252,-10.68923 c 3.117906,0 5.066597,1.8887 5.066597,4.82221 0,2.93351 -1.948691,4.70165 -5.339413,4.70165 h -8.496294 v -9.52386 z m -8.76911,22.46344 v -10.16681 h 8.730136 c 3.741487,0 6.001969,1.8887 6.001969,5.06331 0,3.17461 -2.143561,5.1035 -5.729152,5.1035 z M 46.89733,679.71341 c -2.299455,0 -4.598911,0.5224 -6.898366,1.6074 l 0.779476,2.41111 c 2.104586,-0.92426 4.092252,-1.40648 5.962995,-1.40648 3.936356,0 6.391707,1.64758 6.391707,5.02313 v 1.68777 c -1.909717,-1.085 -4.170199,-1.64759 -6.781445,-1.64759 -2.221508,0 -4.092252,0.56259 -5.573257,1.68777 -1.481005,1.16537 -2.221508,2.73258 -2.221508,4.78202 0,2.00925 0.701529,3.57647 2.14356,4.66147 1.403058,1.12518 3.15688,1.68777 5.30044,1.68777 3.234827,0 6.196838,-1.64758 7.444,-4.25962 h 0.07795 c -0.03897,0.8439 -0.07795,2.16999 -0.07795,3.93813 h 2.572272 v -12.53772 c 0,-5.26424 -3.507644,-7.63516 -9.119874,-7.63516 z m -0.428711,17.96271 c -2.806116,0 -5.027623,-1.48685 -5.027623,-3.89794 0,-2.4513 2.221507,-3.93815 5.378387,-3.93815 2.377402,0 4.48199,0.60279 6.391707,1.76815 -0.116922,1.84851 -0.818451,3.33535 -2.104587,4.42035 -1.286136,1.085 -2.845089,1.64759 -4.637884,1.64759 z m 18.821392,2.21017 v -10.7294 c 0,-1.92888 0.623581,-3.53628 1.83177,-4.8222 1.208187,-1.28593 2.76714,-1.92888 4.676858,-1.92888 3.741487,0 5.729152,2.37091 5.729152,6.4296 v 11.05088 h 2.884063 v -11.29198 c 0,-5.62592 -2.923037,-8.8809 -8.106555,-8.8809 -3.312775,0 -6.040943,1.56721 -7.171183,4.25961 h -0.116922 c 0.07795,-1.44666 0.116922,-2.77277 0.116922,-3.93814 h -2.728168 v 19.85141 z m 36.320639,-19.85141 h -3.62456 l -5.30044,5.58573 c -1.364084,1.40648 -2.33843,2.49147 -3.000984,3.33536 l -0.07795,-0.0402 c 0.03897,-1.12518 0.07795,-3.37554 0.07795,-6.75108 v -10.40793 h -2.884063 v 28.12952 h 2.884063 v -3.53629 c 0,-2.77276 -0.03897,-4.70165 -0.116922,-5.82682 l 0.116922,-0.0402 c 0.779476,0.92425 1.909717,2.16999 3.390722,3.65684 l 5.885051,5.74645 h 3.858401 L 92.37386,689.71948 Z"
         id="text143-8"
         style="-inkscape-font-specification:'NexaText, Light';fill:#00c859;stroke-width:1.01542;stroke-linecap:round;stroke-linejoin:round"
         aria-label="Bank" /><g
         id="g331-2-9"
         transform="matrix(0.26675356,0,0,0.26675356,-457.52761,307.8901)"><path
           style="fill:#05325c;fill-opacity:1;stroke:#05325c;stroke-width:0.13292;stroke-linecap:round;stroke-linejoin:round;stroke-dasharray:none;stroke-opacity:1"
           d="m 1202.3667,1364.4451 -22.4676,38.2219 19.8775,34.404 c 0.01,8.88 18.7157,5.6291 22.7025,1.615 0.5125,-0.5161 5.1537,-9.5805 5.4186,-10.1448 2.7815,-5.9253 5.0949,-11.821 0.2978,-19.9413 z"
           id="path328-9-3" /><path
           d="m 1184.7469,1480.0728 c 5.7558,-0.2628 10.8998,0.351 15.5557,-3.1553 3.413,-3.1606 7.8904,-9.3156 11.6497,-16.5964 -5.7853,4.5592 -13.333,4.1671 -26.2163,4.1251 l -39.081,0.1786 -9.0079,15.4053 z"
           style="fill:#0b63b7;fill-opacity:1;stroke:#0b63b7;stroke-width:0.13292;stroke-linecap:round;stroke-linejoin:round;stroke-opacity:1"
           id="path331-4-9" /><g
           id="g327-1-6"><path
             style="fill:#009040;fill-opacity:1;stroke:#009040;stroke-width:0.13292;stroke-linecap:round;stroke-linejoin:round;stroke-dasharray:none;stroke-opacity:1"
             d="m 1127.9841,1470.3225 22.4676,-38.2219 -19.8775,-34.404 c -0.01,-8.88 -18.7157,-5.6291 -22.7025,-1.615 -0.5125,0.5161 -5.1537,9.5805 -5.4186,10.1448 -2.7815,5.9253 -5.0949,11.821 -0.2978,19.9413 z"
             id="path327-9-7" /><path
             d="m 1131.5635,1382.0699 c -5.7557,0.2628 -12.2439,-0.076 -16.1212,4.1676 -5.675,6.1666 -9.7655,12.7677 -12.9892,19.9889 3.0079,-4.5718 14.7069,-8.0992 28.1213,-8.5298 l 39.081,-0.1787 9.0078,-15.4052 z"
             style="fill:#00ae4d;fill-opacity:1;stroke:#00ae4d;stroke-width:0.133;stroke-linecap:round;stroke-linejoin:round;stroke-dasharray:none;stroke-opacity:1"
             id="path318-6-9" /><path
             style="fill:#009040;fill-opacity:1;stroke:#009040;stroke-width:0.13292;stroke-linecap:round;stroke-linejoin:round;stroke-dasharray:none;stroke-opacity:1"
             d="m 1127.9841,1470.3225 22.4676,-38.2219 -19.8775,-34.404 c -13.4144,0.4299 -25.7956,3.5759 -28.1211,8.5298 -2.7816,5.9253 -5.0949,11.821 -0.2978,19.9413 z"
             id="path317-9-9" /><path
             d="m 1145.6039,1354.6948 c -5.7558,0.2628 -10.8998,-0.351 -15.5557,3.1553 -3.413,3.1606 -7.8904,9.3156 -11.6497,16.5964 5.7853,-4.5592 13.333,-4.1671 26.2163,-4.1251 l 39.081,-0.1786 9.0079,-15.4053 z"
             style="fill:#00c859;fill-opacity:1;stroke:#00c859;stroke-width:0.13292;stroke-linecap:round;stroke-linejoin:round;stroke-opacity:1"
             id="path319-8-7" /></g><path
           d="m 1198.7873,1452.6977 c 5.7557,-0.2628 12.2439,0.076 16.1212,-4.1676 5.675,-6.1666 9.7655,-12.7677 12.9892,-19.9889 -3.0079,4.5718 -14.7069,8.0992 -28.1213,8.5298 l -39.081,0.1787 -9.0078,15.4052 z"
           style="fill:#08549d;fill-opacity:1;stroke:#08549d;stroke-width:0.133;stroke-linecap:round;stroke-linejoin:round;stroke-dasharray:none;stroke-opacity:1"
           id="path329-2-6" /><path
           style="fill:#07457e;fill-opacity:1;stroke:#07457e;stroke-width:0.133;stroke-linecap:round;stroke-linejoin:round;stroke-dasharray:none;stroke-opacity:1"
           d="m 1202.3667,1364.4451 -22.4676,38.2219 19.8775,34.404 c 13.4144,-0.4299 25.7956,-3.5759 28.1211,-8.5298 2.7816,-5.9253 5.0949,-11.821 0.2978,-19.9413 z"
           id="path330-5-9" /></g></g></g></svg>
